<mxfile host="app.diagrams.net" agent="Mozilla/5.0 (Windows NT 10.0; Win64; x64) AppleWebKit/537.36 (KHTML, like Gecko) Chrome/131.0.0.0 Safari/537.36 Edg/131.0.0.0" version="25.0.1" pages="7">
  <diagram id="C5RBs43oDa-KdzZeNtuy" name="Page-1">
    <mxGraphModel dx="1666" dy="815" grid="1" gridSize="10" guides="1" tooltips="1" connect="1" arrows="1" fold="1" page="1" pageScale="1" pageWidth="827" pageHeight="1169" math="0" shadow="0">
      <root>
        <mxCell id="WIyWlLk6GJQsqaUBKTNV-0" />
        <mxCell id="WIyWlLk6GJQsqaUBKTNV-1" parent="WIyWlLk6GJQsqaUBKTNV-0" />
        <mxCell id="lE2hWkCyO-wVZT4R470j-0" value="&#xa;&lt;table style=&quot;--tw-border-spacing-x: 0; --tw-border-spacing-y: 0; --tw-translate-x: 0; --tw-translate-y: 0; --tw-rotate: 0; --tw-skew-x: 0; --tw-skew-y: 0; --tw-scale-x: 1; --tw-scale-y: 1; --tw-pan-x: ; --tw-pan-y: ; --tw-pinch-zoom: ; --tw-scroll-snap-strictness: proximity; --tw-gradient-from-position: ; --tw-gradient-via-position: ; --tw-gradient-to-position: ; --tw-ordinal: ; --tw-slashed-zero: ; --tw-numeric-figure: ; --tw-numeric-spacing: ; --tw-numeric-fraction: ; --tw-ring-inset: ; --tw-ring-offset-width: 0px; --tw-ring-offset-color: #fff; --tw-ring-color: rgb(59 130 246 / .5); --tw-ring-offset-shadow: 0 0 #0000; --tw-ring-shadow: 0 0 #0000; --tw-shadow: 0 0 #0000; --tw-shadow-colored: 0 0 #0000; --tw-blur: ; --tw-brightness: ; --tw-contrast: ; --tw-grayscale: ; --tw-hue-rotate: ; --tw-invert: ; --tw-saturate: ; --tw-sepia: ; --tw-drop-shadow: ; --tw-backdrop-blur: ; --tw-backdrop-brightness: ; --tw-backdrop-contrast: ; --tw-backdrop-grayscale: ; --tw-backdrop-hue-rotate: ; --tw-backdrop-invert: ; --tw-backdrop-opacity: ; --tw-backdrop-saturate: ; --tw-backdrop-sepia: ; --tw-contain-size: ; --tw-contain-layout: ; --tw-contain-paint: ; --tw-contain-style: ; border-spacing: 0px; border-collapse: separate; display: block; width: max-content; max-width: 100%; overflow: auto; margin-top: 0px; margin-bottom: 16px; color: rgba(6, 8, 31, 0.88); font-family: D-DINExp, &amp;quot;DM Sans&amp;quot;, -apple-system, BlinkMacSystemFont, &amp;quot;Segoe UI&amp;quot;, Roboto, &amp;quot;Helvetica Neue&amp;quot;, Arial, &amp;quot;Noto Sans&amp;quot;, sans-serif, &amp;quot;Apple Color Emoji&amp;quot;, &amp;quot;Segoe UI Emoji&amp;quot;, &amp;quot;Segoe UI Symbol&amp;quot;, &amp;quot;Noto Color Emoji&amp;quot;; font-size: 14px; font-style: normal; font-variant-ligatures: normal; font-variant-caps: normal; font-weight: 400; letter-spacing: normal; orphans: 2; text-align: start; text-transform: none; widows: 2; word-spacing: 0px; -webkit-text-stroke-width: 0px; white-space: normal; background-color: rgb(255, 255, 255); text-decoration-thickness: initial; text-decoration-style: initial; text-decoration-color: initial;&quot; class=&quot;preview&quot;&gt;&lt;thead style=&quot;--tw-border-spacing-x: 0; --tw-border-spacing-y: 0; --tw-translate-x: 0; --tw-translate-y: 0; --tw-rotate: 0; --tw-skew-x: 0; --tw-skew-y: 0; --tw-scale-x: 1; --tw-scale-y: 1; --tw-pan-x: ; --tw-pan-y: ; --tw-pinch-zoom: ; --tw-scroll-snap-strictness: proximity; --tw-gradient-from-position: ; --tw-gradient-via-position: ; --tw-gradient-to-position: ; --tw-ordinal: ; --tw-slashed-zero: ; --tw-numeric-figure: ; --tw-numeric-spacing: ; --tw-numeric-fraction: ; --tw-ring-inset: ; --tw-ring-offset-width: 0px; --tw-ring-offset-color: #fff; --tw-ring-color: rgb(59 130 246 / .5); --tw-ring-offset-shadow: 0 0 #0000; --tw-ring-shadow: 0 0 #0000; --tw-shadow: 0 0 #0000; --tw-shadow-colored: 0 0 #0000; --tw-blur: ; --tw-brightness: ; --tw-contrast: ; --tw-grayscale: ; --tw-hue-rotate: ; --tw-invert: ; --tw-saturate: ; --tw-sepia: ; --tw-drop-shadow: ; --tw-backdrop-blur: ; --tw-backdrop-brightness: ; --tw-backdrop-contrast: ; --tw-backdrop-grayscale: ; --tw-backdrop-hue-rotate: ; --tw-backdrop-invert: ; --tw-backdrop-opacity: ; --tw-backdrop-saturate: ; --tw-backdrop-sepia: ; --tw-contain-size: ; --tw-contain-layout: ; --tw-contain-paint: ; --tw-contain-style: ;&quot;&gt;&lt;tr style=&quot;--tw-border-spacing-x: 0; --tw-border-spacing-y: 0; --tw-translate-x: 0; --tw-translate-y: 0; --tw-rotate: 0; --tw-skew-x: 0; --tw-skew-y: 0; --tw-scale-x: 1; --tw-scale-y: 1; --tw-pan-x: ; --tw-pan-y: ; --tw-pinch-zoom: ; --tw-scroll-snap-strictness: proximity; --tw-gradient-from-position: ; --tw-gradient-via-position: ; --tw-gradient-to-position: ; --tw-ordinal: ; --tw-slashed-zero: ; --tw-numeric-figure: ; --tw-numeric-spacing: ; --tw-numeric-fraction: ; --tw-ring-inset: ; --tw-ring-offset-width: 0px; --tw-ring-offset-color: #fff; --tw-ring-color: rgb(59 130 246 / .5); --tw-ring-offset-shadow: 0 0 #0000; --tw-ring-shadow: 0 0 #0000; --tw-shadow: 0 0 #0000; --tw-shadow-colored: 0 0 #0000; --tw-blur: ; --tw-brightness: ; --tw-contrast: ; --tw-grayscale: ; --tw-hue-rotate: ; --tw-invert: ; --tw-saturate: ; --tw-sepia: ; --tw-drop-shadow: ; --tw-backdrop-blur: ; --tw-backdrop-brightness: ; --tw-backdrop-contrast: ; --tw-backdrop-grayscale: ; --tw-backdrop-hue-rotate: ; --tw-backdrop-invert: ; --tw-backdrop-opacity: ; --tw-backdrop-saturate: ; --tw-backdrop-sepia: ; --tw-contain-size: ; --tw-contain-layout: ; --tw-contain-paint: ; --tw-contain-style: ; background-color: var(--sds-color-grey-fill2-hover);&quot;&gt;&lt;th style=&quot;--tw-border-spacing-x: 0; --tw-border-spacing-y: 0; --tw-translate-x: 0; --tw-translate-y: 0; --tw-rotate: 0; --tw-skew-x: 0; --tw-skew-y: 0; --tw-scale-x: 1; --tw-scale-y: 1; --tw-pan-x: ; --tw-pan-y: ; --tw-pinch-zoom: ; --tw-scroll-snap-strictness: proximity; --tw-gradient-from-position: ; --tw-gradient-via-position: ; --tw-gradient-to-position: ; --tw-ordinal: ; --tw-slashed-zero: ; --tw-numeric-figure: ; --tw-numeric-spacing: ; --tw-numeric-fraction: ; --tw-ring-inset: ; --tw-ring-offset-width: 0px; --tw-ring-offset-color: #fff; --tw-ring-color: rgb(59 130 246 / .5); --tw-ring-offset-shadow: 0 0 #0000; --tw-ring-shadow: 0 0 #0000; --tw-shadow: 0 0 #0000; --tw-shadow-colored: 0 0 #0000; --tw-blur: ; --tw-brightness: ; --tw-contrast: ; --tw-grayscale: ; --tw-hue-rotate: ; --tw-invert: ; --tw-saturate: ; --tw-sepia: ; --tw-drop-shadow: ; --tw-backdrop-blur: ; --tw-backdrop-brightness: ; --tw-backdrop-contrast: ; --tw-backdrop-grayscale: ; --tw-backdrop-hue-rotate: ; --tw-backdrop-invert: ; --tw-backdrop-opacity: ; --tw-backdrop-saturate: ; --tw-backdrop-sepia: ; --tw-contain-size: ; --tw-contain-layout: ; --tw-contain-paint: ; --tw-contain-style: ; padding: 6px 13px; font-weight: 600; text-align: left; max-width: 300px; border-left: none;&quot;&gt;Hình dạng&lt;/th&gt;&lt;th style=&quot;--tw-border-spacing-x: 0; --tw-border-spacing-y: 0; --tw-translate-x: 0; --tw-translate-y: 0; --tw-rotate: 0; --tw-skew-x: 0; --tw-skew-y: 0; --tw-scale-x: 1; --tw-scale-y: 1; --tw-pan-x: ; --tw-pan-y: ; --tw-pinch-zoom: ; --tw-scroll-snap-strictness: proximity; --tw-gradient-from-position: ; --tw-gradient-via-position: ; --tw-gradient-to-position: ; --tw-ordinal: ; --tw-slashed-zero: ; --tw-numeric-figure: ; --tw-numeric-spacing: ; --tw-numeric-fraction: ; --tw-ring-inset: ; --tw-ring-offset-width: 0px; --tw-ring-offset-color: #fff; --tw-ring-color: rgb(59 130 246 / .5); --tw-ring-offset-shadow: 0 0 #0000; --tw-ring-shadow: 0 0 #0000; --tw-shadow: 0 0 #0000; --tw-shadow-colored: 0 0 #0000; --tw-blur: ; --tw-brightness: ; --tw-contrast: ; --tw-grayscale: ; --tw-hue-rotate: ; --tw-invert: ; --tw-saturate: ; --tw-sepia: ; --tw-drop-shadow: ; --tw-backdrop-blur: ; --tw-backdrop-brightness: ; --tw-backdrop-contrast: ; --tw-backdrop-grayscale: ; --tw-backdrop-hue-rotate: ; --tw-backdrop-invert: ; --tw-backdrop-opacity: ; --tw-backdrop-saturate: ; --tw-backdrop-sepia: ; --tw-contain-size: ; --tw-contain-layout: ; --tw-contain-paint: ; --tw-contain-style: ; padding: 6px 13px; font-weight: 600; text-align: left; max-width: 300px; border-right: 1px solid var(--table-border-color);&quot;&gt;Ý nghĩa&lt;/th&gt;&lt;/tr&gt;&lt;/thead&gt;&lt;tbody style=&quot;--tw-border-spacing-x: 0; --tw-border-spacing-y: 0; --tw-translate-x: 0; --tw-translate-y: 0; --tw-rotate: 0; --tw-skew-x: 0; --tw-skew-y: 0; --tw-scale-x: 1; --tw-scale-y: 1; --tw-pan-x: ; --tw-pan-y: ; --tw-pinch-zoom: ; --tw-scroll-snap-strictness: proximity; --tw-gradient-from-position: ; --tw-gradient-via-position: ; --tw-gradient-to-position: ; --tw-ordinal: ; --tw-slashed-zero: ; --tw-numeric-figure: ; --tw-numeric-spacing: ; --tw-numeric-fraction: ; --tw-ring-inset: ; --tw-ring-offset-width: 0px; --tw-ring-offset-color: #fff; --tw-ring-color: rgb(59 130 246 / .5); --tw-ring-offset-shadow: 0 0 #0000; --tw-ring-shadow: 0 0 #0000; --tw-shadow: 0 0 #0000; --tw-shadow-colored: 0 0 #0000; --tw-blur: ; --tw-brightness: ; --tw-contrast: ; --tw-grayscale: ; --tw-hue-rotate: ; --tw-invert: ; --tw-saturate: ; --tw-sepia: ; --tw-drop-shadow: ; --tw-backdrop-blur: ; --tw-backdrop-brightness: ; --tw-backdrop-contrast: ; --tw-backdrop-grayscale: ; --tw-backdrop-hue-rotate: ; --tw-backdrop-invert: ; --tw-backdrop-opacity: ; --tw-backdrop-saturate: ; --tw-backdrop-sepia: ; --tw-contain-size: ; --tw-contain-layout: ; --tw-contain-paint: ; --tw-contain-style: ;&quot;&gt;&lt;tr style=&quot;--tw-border-spacing-x: 0; --tw-border-spacing-y: 0; --tw-translate-x: 0; --tw-translate-y: 0; --tw-rotate: 0; --tw-skew-x: 0; --tw-skew-y: 0; --tw-scale-x: 1; --tw-scale-y: 1; --tw-pan-x: ; --tw-pan-y: ; --tw-pinch-zoom: ; --tw-scroll-snap-strictness: proximity; --tw-gradient-from-position: ; --tw-gradient-via-position: ; --tw-gradient-to-position: ; --tw-ordinal: ; --tw-slashed-zero: ; --tw-numeric-figure: ; --tw-numeric-spacing: ; --tw-numeric-fraction: ; --tw-ring-inset: ; --tw-ring-offset-width: 0px; --tw-ring-offset-color: #fff; --tw-ring-color: rgb(59 130 246 / .5); --tw-ring-offset-shadow: 0 0 #0000; --tw-ring-shadow: 0 0 #0000; --tw-shadow: 0 0 #0000; --tw-shadow-colored: 0 0 #0000; --tw-blur: ; --tw-brightness: ; --tw-contrast: ; --tw-grayscale: ; --tw-hue-rotate: ; --tw-invert: ; --tw-saturate: ; --tw-sepia: ; --tw-drop-shadow: ; --tw-backdrop-blur: ; --tw-backdrop-brightness: ; --tw-backdrop-contrast: ; --tw-backdrop-grayscale: ; --tw-backdrop-hue-rotate: ; --tw-backdrop-invert: ; --tw-backdrop-opacity: ; --tw-backdrop-saturate: ; --tw-backdrop-sepia: ; --tw-contain-size: ; --tw-contain-layout: ; --tw-contain-paint: ; --tw-contain-style: ; background-color: transparent;&quot;&gt;&lt;td style=&quot;--tw-border-spacing-x: 0; --tw-border-spacing-y: 0; --tw-translate-x: 0; --tw-translate-y: 0; --tw-rotate: 0; --tw-skew-x: 0; --tw-skew-y: 0; --tw-scale-x: 1; --tw-scale-y: 1; --tw-pan-x: ; --tw-pan-y: ; --tw-pinch-zoom: ; --tw-scroll-snap-strictness: proximity; --tw-gradient-from-position: ; --tw-gradient-via-position: ; --tw-gradient-to-position: ; --tw-ordinal: ; --tw-slashed-zero: ; --tw-numeric-figure: ; --tw-numeric-spacing: ; --tw-numeric-fraction: ; --tw-ring-inset: ; --tw-ring-offset-width: 0px; --tw-ring-offset-color: #fff; --tw-ring-color: rgb(59 130 246 / .5); --tw-ring-offset-shadow: 0 0 #0000; --tw-ring-shadow: 0 0 #0000; --tw-shadow: 0 0 #0000; --tw-shadow-colored: 0 0 #0000; --tw-blur: ; --tw-brightness: ; --tw-contrast: ; --tw-grayscale: ; --tw-hue-rotate: ; --tw-invert: ; --tw-saturate: ; --tw-sepia: ; --tw-drop-shadow: ; --tw-backdrop-blur: ; --tw-backdrop-brightness: ; --tw-backdrop-contrast: ; --tw-backdrop-grayscale: ; --tw-backdrop-hue-rotate: ; --tw-backdrop-invert: ; --tw-backdrop-opacity: ; --tw-backdrop-saturate: ; --tw-backdrop-sepia: ; --tw-contain-size: ; --tw-contain-layout: ; --tw-contain-paint: ; --tw-contain-style: ; padding: 6px 13px; max-width: 300px; border-left: none;&quot;&gt;&lt;strong style=&quot;--tw-border-spacing-x: 0; --tw-border-spacing-y: 0; --tw-translate-x: 0; --tw-translate-y: 0; --tw-rotate: 0; --tw-skew-x: 0; --tw-skew-y: 0; --tw-scale-x: 1; --tw-scale-y: 1; --tw-pan-x: ; --tw-pan-y: ; --tw-pinch-zoom: ; --tw-scroll-snap-strictness: proximity; --tw-gradient-from-position: ; --tw-gradient-via-position: ; --tw-gradient-to-position: ; --tw-ordinal: ; --tw-slashed-zero: ; --tw-numeric-figure: ; --tw-numeric-spacing: ; --tw-numeric-fraction: ; --tw-ring-inset: ; --tw-ring-offset-width: 0px; --tw-ring-offset-color: #fff; --tw-ring-color: rgb(59 130 246 / .5); --tw-ring-offset-shadow: 0 0 #0000; --tw-ring-shadow: 0 0 #0000; --tw-shadow: 0 0 #0000; --tw-shadow-colored: 0 0 #0000; --tw-blur: ; --tw-brightness: ; --tw-contrast: ; --tw-grayscale: ; --tw-hue-rotate: ; --tw-invert: ; --tw-saturate: ; --tw-sepia: ; --tw-drop-shadow: ; --tw-backdrop-blur: ; --tw-backdrop-brightness: ; --tw-backdrop-contrast: ; --tw-backdrop-grayscale: ; --tw-backdrop-hue-rotate: ; --tw-backdrop-invert: ; --tw-backdrop-opacity: ; --tw-backdrop-saturate: ; --tw-backdrop-sepia: ; --tw-contain-size: ; --tw-contain-layout: ; --tw-contain-paint: ; --tw-contain-style: ; font-weight: 600;&quot;&gt;Oval (Hình elip)&lt;/strong&gt;&lt;/td&gt;&lt;td style=&quot;--tw-border-spacing-x: 0; --tw-border-spacing-y: 0; --tw-translate-x: 0; --tw-translate-y: 0; --tw-rotate: 0; --tw-skew-x: 0; --tw-skew-y: 0; --tw-scale-x: 1; --tw-scale-y: 1; --tw-pan-x: ; --tw-pan-y: ; --tw-pinch-zoom: ; --tw-scroll-snap-strictness: proximity; --tw-gradient-from-position: ; --tw-gradient-via-position: ; --tw-gradient-to-position: ; --tw-ordinal: ; --tw-slashed-zero: ; --tw-numeric-figure: ; --tw-numeric-spacing: ; --tw-numeric-fraction: ; --tw-ring-inset: ; --tw-ring-offset-width: 0px; --tw-ring-offset-color: #fff; --tw-ring-color: rgb(59 130 246 / .5); --tw-ring-offset-shadow: 0 0 #0000; --tw-ring-shadow: 0 0 #0000; --tw-shadow: 0 0 #0000; --tw-shadow-colored: 0 0 #0000; --tw-blur: ; --tw-brightness: ; --tw-contrast: ; --tw-grayscale: ; --tw-hue-rotate: ; --tw-invert: ; --tw-saturate: ; --tw-sepia: ; --tw-drop-shadow: ; --tw-backdrop-blur: ; --tw-backdrop-brightness: ; --tw-backdrop-contrast: ; --tw-backdrop-grayscale: ; --tw-backdrop-hue-rotate: ; --tw-backdrop-invert: ; --tw-backdrop-opacity: ; --tw-backdrop-saturate: ; --tw-backdrop-sepia: ; --tw-contain-size: ; --tw-contain-layout: ; --tw-contain-paint: ; --tw-contain-style: ; padding: 6px 13px; max-width: 300px; border-right: 1px solid var(--table-border-color);&quot;&gt;&lt;strong style=&quot;--tw-border-spacing-x: 0; --tw-border-spacing-y: 0; --tw-translate-x: 0; --tw-translate-y: 0; --tw-rotate: 0; --tw-skew-x: 0; --tw-skew-y: 0; --tw-scale-x: 1; --tw-scale-y: 1; --tw-pan-x: ; --tw-pan-y: ; --tw-pinch-zoom: ; --tw-scroll-snap-strictness: proximity; --tw-gradient-from-position: ; --tw-gradient-via-position: ; --tw-gradient-to-position: ; --tw-ordinal: ; --tw-slashed-zero: ; --tw-numeric-figure: ; --tw-numeric-spacing: ; --tw-numeric-fraction: ; --tw-ring-inset: ; --tw-ring-offset-width: 0px; --tw-ring-offset-color: #fff; --tw-ring-color: rgb(59 130 246 / .5); --tw-ring-offset-shadow: 0 0 #0000; --tw-ring-shadow: 0 0 #0000; --tw-shadow: 0 0 #0000; --tw-shadow-colored: 0 0 #0000; --tw-blur: ; --tw-brightness: ; --tw-contrast: ; --tw-grayscale: ; --tw-hue-rotate: ; --tw-invert: ; --tw-saturate: ; --tw-sepia: ; --tw-drop-shadow: ; --tw-backdrop-blur: ; --tw-backdrop-brightness: ; --tw-backdrop-contrast: ; --tw-backdrop-grayscale: ; --tw-backdrop-hue-rotate: ; --tw-backdrop-invert: ; --tw-backdrop-opacity: ; --tw-backdrop-saturate: ; --tw-backdrop-sepia: ; --tw-contain-size: ; --tw-contain-layout: ; --tw-contain-paint: ; --tw-contain-style: ; font-weight: 600;&quot;&gt;Bắt đầu / Kết thúc&lt;/strong&gt;&lt;span&gt;&amp;nbsp;&lt;/span&gt;- Đại diện cho điểm bắt đầu (start) và kết thúc (end) của một quy trình.&lt;/td&gt;&lt;/tr&gt;&lt;tr style=&quot;--tw-border-spacing-x: 0; --tw-border-spacing-y: 0; --tw-translate-x: 0; --tw-translate-y: 0; --tw-rotate: 0; --tw-skew-x: 0; --tw-skew-y: 0; --tw-scale-x: 1; --tw-scale-y: 1; --tw-pan-x: ; --tw-pan-y: ; --tw-pinch-zoom: ; --tw-scroll-snap-strictness: proximity; --tw-gradient-from-position: ; --tw-gradient-via-position: ; --tw-gradient-to-position: ; --tw-ordinal: ; --tw-slashed-zero: ; --tw-numeric-figure: ; --tw-numeric-spacing: ; --tw-numeric-fraction: ; --tw-ring-inset: ; --tw-ring-offset-width: 0px; --tw-ring-offset-color: #fff; --tw-ring-color: rgb(59 130 246 / .5); --tw-ring-offset-shadow: 0 0 #0000; --tw-ring-shadow: 0 0 #0000; --tw-shadow: 0 0 #0000; --tw-shadow-colored: 0 0 #0000; --tw-blur: ; --tw-brightness: ; --tw-contrast: ; --tw-grayscale: ; --tw-hue-rotate: ; --tw-invert: ; --tw-saturate: ; --tw-sepia: ; --tw-drop-shadow: ; --tw-backdrop-blur: ; --tw-backdrop-brightness: ; --tw-backdrop-contrast: ; --tw-backdrop-grayscale: ; --tw-backdrop-hue-rotate: ; --tw-backdrop-invert: ; --tw-backdrop-opacity: ; --tw-backdrop-saturate: ; --tw-backdrop-sepia: ; --tw-contain-size: ; --tw-contain-layout: ; --tw-contain-paint: ; --tw-contain-style: ; background-color: var(--sds-color-grey-fill2-normal);&quot;&gt;&lt;td style=&quot;--tw-border-spacing-x: 0; --tw-border-spacing-y: 0; --tw-translate-x: 0; --tw-translate-y: 0; --tw-rotate: 0; --tw-skew-x: 0; --tw-skew-y: 0; --tw-scale-x: 1; --tw-scale-y: 1; --tw-pan-x: ; --tw-pan-y: ; --tw-pinch-zoom: ; --tw-scroll-snap-strictness: proximity; --tw-gradient-from-position: ; --tw-gradient-via-position: ; --tw-gradient-to-position: ; --tw-ordinal: ; --tw-slashed-zero: ; --tw-numeric-figure: ; --tw-numeric-spacing: ; --tw-numeric-fraction: ; --tw-ring-inset: ; --tw-ring-offset-width: 0px; --tw-ring-offset-color: #fff; --tw-ring-color: rgb(59 130 246 / .5); --tw-ring-offset-shadow: 0 0 #0000; --tw-ring-shadow: 0 0 #0000; --tw-shadow: 0 0 #0000; --tw-shadow-colored: 0 0 #0000; --tw-blur: ; --tw-brightness: ; --tw-contrast: ; --tw-grayscale: ; --tw-hue-rotate: ; --tw-invert: ; --tw-saturate: ; --tw-sepia: ; --tw-drop-shadow: ; --tw-backdrop-blur: ; --tw-backdrop-brightness: ; --tw-backdrop-contrast: ; --tw-backdrop-grayscale: ; --tw-backdrop-hue-rotate: ; --tw-backdrop-invert: ; --tw-backdrop-opacity: ; --tw-backdrop-saturate: ; --tw-backdrop-sepia: ; --tw-contain-size: ; --tw-contain-layout: ; --tw-contain-paint: ; --tw-contain-style: ; padding: 6px 13px; max-width: 300px; border-left: none;&quot;&gt;&lt;strong style=&quot;--tw-border-spacing-x: 0; --tw-border-spacing-y: 0; --tw-translate-x: 0; --tw-translate-y: 0; --tw-rotate: 0; --tw-skew-x: 0; --tw-skew-y: 0; --tw-scale-x: 1; --tw-scale-y: 1; --tw-pan-x: ; --tw-pan-y: ; --tw-pinch-zoom: ; --tw-scroll-snap-strictness: proximity; --tw-gradient-from-position: ; --tw-gradient-via-position: ; --tw-gradient-to-position: ; --tw-ordinal: ; --tw-slashed-zero: ; --tw-numeric-figure: ; --tw-numeric-spacing: ; --tw-numeric-fraction: ; --tw-ring-inset: ; --tw-ring-offset-width: 0px; --tw-ring-offset-color: #fff; --tw-ring-color: rgb(59 130 246 / .5); --tw-ring-offset-shadow: 0 0 #0000; --tw-ring-shadow: 0 0 #0000; --tw-shadow: 0 0 #0000; --tw-shadow-colored: 0 0 #0000; --tw-blur: ; --tw-brightness: ; --tw-contrast: ; --tw-grayscale: ; --tw-hue-rotate: ; --tw-invert: ; --tw-saturate: ; --tw-sepia: ; --tw-drop-shadow: ; --tw-backdrop-blur: ; --tw-backdrop-brightness: ; --tw-backdrop-contrast: ; --tw-backdrop-grayscale: ; --tw-backdrop-hue-rotate: ; --tw-backdrop-invert: ; --tw-backdrop-opacity: ; --tw-backdrop-saturate: ; --tw-backdrop-sepia: ; --tw-contain-size: ; --tw-contain-layout: ; --tw-contain-paint: ; --tw-contain-style: ; font-weight: 600;&quot;&gt;Hình chữ nhật&lt;/strong&gt;&lt;/td&gt;&lt;td style=&quot;--tw-border-spacing-x: 0; --tw-border-spacing-y: 0; --tw-translate-x: 0; --tw-translate-y: 0; --tw-rotate: 0; --tw-skew-x: 0; --tw-skew-y: 0; --tw-scale-x: 1; --tw-scale-y: 1; --tw-pan-x: ; --tw-pan-y: ; --tw-pinch-zoom: ; --tw-scroll-snap-strictness: proximity; --tw-gradient-from-position: ; --tw-gradient-via-position: ; --tw-gradient-to-position: ; --tw-ordinal: ; --tw-slashed-zero: ; --tw-numeric-figure: ; --tw-numeric-spacing: ; --tw-numeric-fraction: ; --tw-ring-inset: ; --tw-ring-offset-width: 0px; --tw-ring-offset-color: #fff; --tw-ring-color: rgb(59 130 246 / .5); --tw-ring-offset-shadow: 0 0 #0000; --tw-ring-shadow: 0 0 #0000; --tw-shadow: 0 0 #0000; --tw-shadow-colored: 0 0 #0000; --tw-blur: ; --tw-brightness: ; --tw-contrast: ; --tw-grayscale: ; --tw-hue-rotate: ; --tw-invert: ; --tw-saturate: ; --tw-sepia: ; --tw-drop-shadow: ; --tw-backdrop-blur: ; --tw-backdrop-brightness: ; --tw-backdrop-contrast: ; --tw-backdrop-grayscale: ; --tw-backdrop-hue-rotate: ; --tw-backdrop-invert: ; --tw-backdrop-opacity: ; --tw-backdrop-saturate: ; --tw-backdrop-sepia: ; --tw-contain-size: ; --tw-contain-layout: ; --tw-contain-paint: ; --tw-contain-style: ; padding: 6px 13px; max-width: 300px; border-right: 1px solid var(--table-border-color);&quot;&gt;&lt;strong style=&quot;--tw-border-spacing-x: 0; --tw-border-spacing-y: 0; --tw-translate-x: 0; --tw-translate-y: 0; --tw-rotate: 0; --tw-skew-x: 0; --tw-skew-y: 0; --tw-scale-x: 1; --tw-scale-y: 1; --tw-pan-x: ; --tw-pan-y: ; --tw-pinch-zoom: ; --tw-scroll-snap-strictness: proximity; --tw-gradient-from-position: ; --tw-gradient-via-position: ; --tw-gradient-to-position: ; --tw-ordinal: ; --tw-slashed-zero: ; --tw-numeric-figure: ; --tw-numeric-spacing: ; --tw-numeric-fraction: ; --tw-ring-inset: ; --tw-ring-offset-width: 0px; --tw-ring-offset-color: #fff; --tw-ring-color: rgb(59 130 246 / .5); --tw-ring-offset-shadow: 0 0 #0000; --tw-ring-shadow: 0 0 #0000; --tw-shadow: 0 0 #0000; --tw-shadow-colored: 0 0 #0000; --tw-blur: ; --tw-brightness: ; --tw-contrast: ; --tw-grayscale: ; --tw-hue-rotate: ; --tw-invert: ; --tw-saturate: ; --tw-sepia: ; --tw-drop-shadow: ; --tw-backdrop-blur: ; --tw-backdrop-brightness: ; --tw-backdrop-contrast: ; --tw-backdrop-grayscale: ; --tw-backdrop-hue-rotate: ; --tw-backdrop-invert: ; --tw-backdrop-opacity: ; --tw-backdrop-saturate: ; --tw-backdrop-sepia: ; --tw-contain-size: ; --tw-contain-layout: ; --tw-contain-paint: ; --tw-contain-style: ; font-weight: 600;&quot;&gt;Quá trình&lt;/strong&gt;&lt;span&gt;&amp;nbsp;&lt;/span&gt;- Đại diện cho một bước trong quy trình, thể hiện các hoạt động hoặc thao tác cần thực hiện.&lt;/td&gt;&lt;/tr&gt;&lt;tr style=&quot;--tw-border-spacing-x: 0; --tw-border-spacing-y: 0; --tw-translate-x: 0; --tw-translate-y: 0; --tw-rotate: 0; --tw-skew-x: 0; --tw-skew-y: 0; --tw-scale-x: 1; --tw-scale-y: 1; --tw-pan-x: ; --tw-pan-y: ; --tw-pinch-zoom: ; --tw-scroll-snap-strictness: proximity; --tw-gradient-from-position: ; --tw-gradient-via-position: ; --tw-gradient-to-position: ; --tw-ordinal: ; --tw-slashed-zero: ; --tw-numeric-figure: ; --tw-numeric-spacing: ; --tw-numeric-fraction: ; --tw-ring-inset: ; --tw-ring-offset-width: 0px; --tw-ring-offset-color: #fff; --tw-ring-color: rgb(59 130 246 / .5); --tw-ring-offset-shadow: 0 0 #0000; --tw-ring-shadow: 0 0 #0000; --tw-shadow: 0 0 #0000; --tw-shadow-colored: 0 0 #0000; --tw-blur: ; --tw-brightness: ; --tw-contrast: ; --tw-grayscale: ; --tw-hue-rotate: ; --tw-invert: ; --tw-saturate: ; --tw-sepia: ; --tw-drop-shadow: ; --tw-backdrop-blur: ; --tw-backdrop-brightness: ; --tw-backdrop-contrast: ; --tw-backdrop-grayscale: ; --tw-backdrop-hue-rotate: ; --tw-backdrop-invert: ; --tw-backdrop-opacity: ; --tw-backdrop-saturate: ; --tw-backdrop-sepia: ; --tw-contain-size: ; --tw-contain-layout: ; --tw-contain-paint: ; --tw-contain-style: ; background-color: transparent;&quot;&gt;&lt;td style=&quot;--tw-border-spacing-x: 0; --tw-border-spacing-y: 0; --tw-translate-x: 0; --tw-translate-y: 0; --tw-rotate: 0; --tw-skew-x: 0; --tw-skew-y: 0; --tw-scale-x: 1; --tw-scale-y: 1; --tw-pan-x: ; --tw-pan-y: ; --tw-pinch-zoom: ; --tw-scroll-snap-strictness: proximity; --tw-gradient-from-position: ; --tw-gradient-via-position: ; --tw-gradient-to-position: ; --tw-ordinal: ; --tw-slashed-zero: ; --tw-numeric-figure: ; --tw-numeric-spacing: ; --tw-numeric-fraction: ; --tw-ring-inset: ; --tw-ring-offset-width: 0px; --tw-ring-offset-color: #fff; --tw-ring-color: rgb(59 130 246 / .5); --tw-ring-offset-shadow: 0 0 #0000; --tw-ring-shadow: 0 0 #0000; --tw-shadow: 0 0 #0000; --tw-shadow-colored: 0 0 #0000; --tw-blur: ; --tw-brightness: ; --tw-contrast: ; --tw-grayscale: ; --tw-hue-rotate: ; --tw-invert: ; --tw-saturate: ; --tw-sepia: ; --tw-drop-shadow: ; --tw-backdrop-blur: ; --tw-backdrop-brightness: ; --tw-backdrop-contrast: ; --tw-backdrop-grayscale: ; --tw-backdrop-hue-rotate: ; --tw-backdrop-invert: ; --tw-backdrop-opacity: ; --tw-backdrop-saturate: ; --tw-backdrop-sepia: ; --tw-contain-size: ; --tw-contain-layout: ; --tw-contain-paint: ; --tw-contain-style: ; padding: 6px 13px; max-width: 300px; border-left: none;&quot;&gt;&lt;strong style=&quot;--tw-border-spacing-x: 0; --tw-border-spacing-y: 0; --tw-translate-x: 0; --tw-translate-y: 0; --tw-rotate: 0; --tw-skew-x: 0; --tw-skew-y: 0; --tw-scale-x: 1; --tw-scale-y: 1; --tw-pan-x: ; --tw-pan-y: ; --tw-pinch-zoom: ; --tw-scroll-snap-strictness: proximity; --tw-gradient-from-position: ; --tw-gradient-via-position: ; --tw-gradient-to-position: ; --tw-ordinal: ; --tw-slashed-zero: ; --tw-numeric-figure: ; --tw-numeric-spacing: ; --tw-numeric-fraction: ; --tw-ring-inset: ; --tw-ring-offset-width: 0px; --tw-ring-offset-color: #fff; --tw-ring-color: rgb(59 130 246 / .5); --tw-ring-offset-shadow: 0 0 #0000; --tw-ring-shadow: 0 0 #0000; --tw-shadow: 0 0 #0000; --tw-shadow-colored: 0 0 #0000; --tw-blur: ; --tw-brightness: ; --tw-contrast: ; --tw-grayscale: ; --tw-hue-rotate: ; --tw-invert: ; --tw-saturate: ; --tw-sepia: ; --tw-drop-shadow: ; --tw-backdrop-blur: ; --tw-backdrop-brightness: ; --tw-backdrop-contrast: ; --tw-backdrop-grayscale: ; --tw-backdrop-hue-rotate: ; --tw-backdrop-invert: ; --tw-backdrop-opacity: ; --tw-backdrop-saturate: ; --tw-backdrop-sepia: ; --tw-contain-size: ; --tw-contain-layout: ; --tw-contain-paint: ; --tw-contain-style: ; font-weight: 600;&quot;&gt;Hình thoi&lt;/strong&gt;&lt;/td&gt;&lt;td style=&quot;--tw-border-spacing-x: 0; --tw-border-spacing-y: 0; --tw-translate-x: 0; --tw-translate-y: 0; --tw-rotate: 0; --tw-skew-x: 0; --tw-skew-y: 0; --tw-scale-x: 1; --tw-scale-y: 1; --tw-pan-x: ; --tw-pan-y: ; --tw-pinch-zoom: ; --tw-scroll-snap-strictness: proximity; --tw-gradient-from-position: ; --tw-gradient-via-position: ; --tw-gradient-to-position: ; --tw-ordinal: ; --tw-slashed-zero: ; --tw-numeric-figure: ; --tw-numeric-spacing: ; --tw-numeric-fraction: ; --tw-ring-inset: ; --tw-ring-offset-width: 0px; --tw-ring-offset-color: #fff; --tw-ring-color: rgb(59 130 246 / .5); --tw-ring-offset-shadow: 0 0 #0000; --tw-ring-shadow: 0 0 #0000; --tw-shadow: 0 0 #0000; --tw-shadow-colored: 0 0 #0000; --tw-blur: ; --tw-brightness: ; --tw-contrast: ; --tw-grayscale: ; --tw-hue-rotate: ; --tw-invert: ; --tw-saturate: ; --tw-sepia: ; --tw-drop-shadow: ; --tw-backdrop-blur: ; --tw-backdrop-brightness: ; --tw-backdrop-contrast: ; --tw-backdrop-grayscale: ; --tw-backdrop-hue-rotate: ; --tw-backdrop-invert: ; --tw-backdrop-opacity: ; --tw-backdrop-saturate: ; --tw-backdrop-sepia: ; --tw-contain-size: ; --tw-contain-layout: ; --tw-contain-paint: ; --tw-contain-style: ; padding: 6px 13px; max-width: 300px; border-right: 1px solid var(--table-border-color);&quot;&gt;&lt;strong style=&quot;--tw-border-spacing-x: 0; --tw-border-spacing-y: 0; --tw-translate-x: 0; --tw-translate-y: 0; --tw-rotate: 0; --tw-skew-x: 0; --tw-skew-y: 0; --tw-scale-x: 1; --tw-scale-y: 1; --tw-pan-x: ; --tw-pan-y: ; --tw-pinch-zoom: ; --tw-scroll-snap-strictness: proximity; --tw-gradient-from-position: ; --tw-gradient-via-position: ; --tw-gradient-to-position: ; --tw-ordinal: ; --tw-slashed-zero: ; --tw-numeric-figure: ; --tw-numeric-spacing: ; --tw-numeric-fraction: ; --tw-ring-inset: ; --tw-ring-offset-width: 0px; --tw-ring-offset-color: #fff; --tw-ring-color: rgb(59 130 246 / .5); --tw-ring-offset-shadow: 0 0 #0000; --tw-ring-shadow: 0 0 #0000; --tw-shadow: 0 0 #0000; --tw-shadow-colored: 0 0 #0000; --tw-blur: ; --tw-brightness: ; --tw-contrast: ; --tw-grayscale: ; --tw-hue-rotate: ; --tw-invert: ; --tw-saturate: ; --tw-sepia: ; --tw-drop-shadow: ; --tw-backdrop-blur: ; --tw-backdrop-brightness: ; --tw-backdrop-contrast: ; --tw-backdrop-grayscale: ; --tw-backdrop-hue-rotate: ; --tw-backdrop-invert: ; --tw-backdrop-opacity: ; --tw-backdrop-saturate: ; --tw-backdrop-sepia: ; --tw-contain-size: ; --tw-contain-layout: ; --tw-contain-paint: ; --tw-contain-style: ; font-weight: 600;&quot;&gt;Điều kiện&lt;/strong&gt;&lt;span&gt;&amp;nbsp;&lt;/span&gt;- Thể hiện quyết định hoặc lựa chọn trong quy trình, nơi cần phân nhánh theo các điều kiện khác nhau.&lt;/td&gt;&lt;/tr&gt;&lt;tr style=&quot;--tw-border-spacing-x: 0; --tw-border-spacing-y: 0; --tw-translate-x: 0; --tw-translate-y: 0; --tw-rotate: 0; --tw-skew-x: 0; --tw-skew-y: 0; --tw-scale-x: 1; --tw-scale-y: 1; --tw-pan-x: ; --tw-pan-y: ; --tw-pinch-zoom: ; --tw-scroll-snap-strictness: proximity; --tw-gradient-from-position: ; --tw-gradient-via-position: ; --tw-gradient-to-position: ; --tw-ordinal: ; --tw-slashed-zero: ; --tw-numeric-figure: ; --tw-numeric-spacing: ; --tw-numeric-fraction: ; --tw-ring-inset: ; --tw-ring-offset-width: 0px; --tw-ring-offset-color: #fff; --tw-ring-color: rgb(59 130 246 / .5); --tw-ring-offset-shadow: 0 0 #0000; --tw-ring-shadow: 0 0 #0000; --tw-shadow: 0 0 #0000; --tw-shadow-colored: 0 0 #0000; --tw-blur: ; --tw-brightness: ; --tw-contrast: ; --tw-grayscale: ; --tw-hue-rotate: ; --tw-invert: ; --tw-saturate: ; --tw-sepia: ; --tw-drop-shadow: ; --tw-backdrop-blur: ; --tw-backdrop-brightness: ; --tw-backdrop-contrast: ; --tw-backdrop-grayscale: ; --tw-backdrop-hue-rotate: ; --tw-backdrop-invert: ; --tw-backdrop-opacity: ; --tw-backdrop-saturate: ; --tw-backdrop-sepia: ; --tw-contain-size: ; --tw-contain-layout: ; --tw-contain-paint: ; --tw-contain-style: ; background-color: var(--sds-color-grey-fill2-normal);&quot;&gt;&lt;td style=&quot;--tw-border-spacing-x: 0; --tw-border-spacing-y: 0; --tw-translate-x: 0; --tw-translate-y: 0; --tw-rotate: 0; --tw-skew-x: 0; --tw-skew-y: 0; --tw-scale-x: 1; --tw-scale-y: 1; --tw-pan-x: ; --tw-pan-y: ; --tw-pinch-zoom: ; --tw-scroll-snap-strictness: proximity; --tw-gradient-from-position: ; --tw-gradient-via-position: ; --tw-gradient-to-position: ; --tw-ordinal: ; --tw-slashed-zero: ; --tw-numeric-figure: ; --tw-numeric-spacing: ; --tw-numeric-fraction: ; --tw-ring-inset: ; --tw-ring-offset-width: 0px; --tw-ring-offset-color: #fff; --tw-ring-color: rgb(59 130 246 / .5); --tw-ring-offset-shadow: 0 0 #0000; --tw-ring-shadow: 0 0 #0000; --tw-shadow: 0 0 #0000; --tw-shadow-colored: 0 0 #0000; --tw-blur: ; --tw-brightness: ; --tw-contrast: ; --tw-grayscale: ; --tw-hue-rotate: ; --tw-invert: ; --tw-saturate: ; --tw-sepia: ; --tw-drop-shadow: ; --tw-backdrop-blur: ; --tw-backdrop-brightness: ; --tw-backdrop-contrast: ; --tw-backdrop-grayscale: ; --tw-backdrop-hue-rotate: ; --tw-backdrop-invert: ; --tw-backdrop-opacity: ; --tw-backdrop-saturate: ; --tw-backdrop-sepia: ; --tw-contain-size: ; --tw-contain-layout: ; --tw-contain-paint: ; --tw-contain-style: ; padding: 6px 13px; max-width: 300px; border-left: none; border-bottom: 1px solid var(--table-border-color);&quot;&gt;&lt;strong style=&quot;--tw-border-spacing-x: 0; --tw-border-spacing-y: 0; --tw-translate-x: 0; --tw-translate-y: 0; --tw-rotate: 0; --tw-skew-x: 0; --tw-skew-y: 0; --tw-scale-x: 1; --tw-scale-y: 1; --tw-pan-x: ; --tw-pan-y: ; --tw-pinch-zoom: ; --tw-scroll-snap-strictness: proximity; --tw-gradient-from-position: ; --tw-gradient-via-position: ; --tw-gradient-to-position: ; --tw-ordinal: ; --tw-slashed-zero: ; --tw-numeric-figure: ; --tw-numeric-spacing: ; --tw-numeric-fraction: ; --tw-ring-inset: ; --tw-ring-offset-width: 0px; --tw-ring-offset-color: #fff; --tw-ring-color: rgb(59 130 246 / .5); --tw-ring-offset-shadow: 0 0 #0000; --tw-ring-shadow: 0 0 #0000; --tw-shadow: 0 0 #0000; --tw-shadow-colored: 0 0 #0000; --tw-blur: ; --tw-brightness: ; --tw-contrast: ; --tw-grayscale: ; --tw-hue-rotate: ; --tw-invert: ; --tw-saturate: ; --tw-sepia: ; --tw-drop-shadow: ; --tw-backdrop-blur: ; --tw-backdrop-brightness: ; --tw-backdrop-contrast: ; --tw-backdrop-grayscale: ; --tw-backdrop-hue-rotate: ; --tw-backdrop-invert: ; --tw-backdrop-opacity: ; --tw-backdrop-saturate: ; --tw-backdrop-sepia: ; --tw-contain-size: ; --tw-contain-layout: ; --tw-contain-paint: ; --tw-contain-style: ; font-weight: 600;&quot;&gt;Mũi tên&lt;/strong&gt;&lt;/td&gt;&lt;td style=&quot;--tw-border-spacing-x: 0; --tw-border-spacing-y: 0; --tw-translate-x: 0; --tw-translate-y: 0; --tw-rotate: 0; --tw-skew-x: 0; --tw-skew-y: 0; --tw-scale-x: 1; --tw-scale-y: 1; --tw-pan-x: ; --tw-pan-y: ; --tw-pinch-zoom: ; --tw-scroll-snap-strictness: proximity; --tw-gradient-from-position: ; --tw-gradient-via-position: ; --tw-gradient-to-position: ; --tw-ordinal: ; --tw-slashed-zero: ; --tw-numeric-figure: ; --tw-numeric-spacing: ; --tw-numeric-fraction: ; --tw-ring-inset: ; --tw-ring-offset-width: 0px; --tw-ring-offset-color: #fff; --tw-ring-color: rgb(59 130 246 / .5); --tw-ring-offset-shadow: 0 0 #0000; --tw-ring-shadow: 0 0 #0000; --tw-shadow: 0 0 #0000; --tw-shadow-colored: 0 0 #0000; --tw-blur: ; --tw-brightness: ; --tw-contrast: ; --tw-grayscale: ; --tw-hue-rotate: ; --tw-invert: ; --tw-saturate: ; --tw-sepia: ; --tw-drop-shadow: ; --tw-backdrop-blur: ; --tw-backdrop-brightness: ; --tw-backdrop-contrast: ; --tw-backdrop-grayscale: ; --tw-backdrop-hue-rotate: ; --tw-backdrop-invert: ; --tw-backdrop-opacity: ; --tw-backdrop-saturate: ; --tw-backdrop-sepia: ; --tw-contain-size: ; --tw-contain-layout: ; --tw-contain-paint: ; --tw-contain-style: ; padding: 6px 13px; max-width: 300px; border-right: 1px solid var(--table-border-color); border-bottom: 1px solid var(--table-border-color);&quot;&gt;&lt;strong style=&quot;--tw-border-spacing-x: 0; --tw-border-spacing-y: 0; --tw-translate-x: 0; --tw-translate-y: 0; --tw-rotate: 0; --tw-skew-x: 0; --tw-skew-y: 0; --tw-scale-x: 1; --tw-scale-y: 1; --tw-pan-x: ; --tw-pan-y: ; --tw-pinch-zoom: ; --tw-scroll-snap-strictness: proximity; --tw-gradient-from-position: ; --tw-gradient-via-position: ; --tw-gradient-to-position: ; --tw-ordinal: ; --tw-slashed-zero: ; --tw-numeric-figure: ; --tw-numeric-spacing: ; --tw-numeric-fraction: ; --tw-ring-inset: ; --tw-ring-offset-width: 0px; --tw-ring-offset-color: #fff; --tw-ring-color: rgb(59 130 246 / .5); --tw-ring-offset-shadow: 0 0 #0000; --tw-ring-shadow: 0 0 #0000; --tw-shadow: 0 0 #0000; --tw-shadow-colored: 0 0 #0000; --tw-blur: ; --tw-brightness: ; --tw-contrast: ; --tw-grayscale: ; --tw-hue-rotate: ; --tw-invert: ; --tw-saturate: ; --tw-sepia: ; --tw-drop-shadow: ; --tw-backdrop-blur: ; --tw-backdrop-brightness: ; --tw-backdrop-contrast: ; --tw-backdrop-grayscale: ; --tw-backdrop-hue-rotate: ; --tw-backdrop-invert: ; --tw-backdrop-opacity: ; --tw-backdrop-saturate: ; --tw-backdrop-sepia: ; --tw-contain-size: ; --tw-contain-layout: ; --tw-contain-paint: ; --tw-contain-style: ; font-weight: 600;&quot;&gt;Luồng điều khiển&lt;/strong&gt;&lt;span&gt;&amp;nbsp;&lt;/span&gt;- Thể hiện hướng đi của quy trình, chỉ dẫn từ bước này sang bước khác.&lt;/td&gt;&lt;/tr&gt;&lt;/tbody&gt;&lt;/table&gt;&#xa;&#xa;" style="whiteSpace=wrap;html=1;aspect=fixed;" vertex="1" parent="WIyWlLk6GJQsqaUBKTNV-1">
          <mxGeometry x="150" y="90" width="540" height="540" as="geometry" />
        </mxCell>
      </root>
    </mxGraphModel>
  </diagram>
  <diagram id="w4egmM4PtgtlOz7WUpPm" name="Page-2">
    <mxGraphModel dx="2221" dy="1087" grid="1" gridSize="10" guides="1" tooltips="1" connect="1" arrows="1" fold="1" page="1" pageScale="1" pageWidth="850" pageHeight="1100" math="0" shadow="0">
      <root>
        <mxCell id="0" />
        <mxCell id="1" parent="0" />
        <mxCell id="EMweqR6UOhpJhbGj0HFd-1" value="&#xa;&lt;h3 data-sourcepos=&quot;5:1-5:16&quot;&gt;Mảng (Array)&lt;/h3&gt;&lt;ul data-sourcepos=&quot;7:1-15:0&quot;&gt;&#xa;&lt;li data-sourcepos=&quot;7:1-10:57&quot;&gt;&lt;strong&gt;Đặc điểm chính:&lt;/strong&gt;&#xa;&lt;ul data-sourcepos=&quot;8:3-10:57&quot;&gt;&#xa;&lt;li data-sourcepos=&quot;8:3-8:52&quot;&gt;Các phần tử được lưu trữ liên tiếp trong bộ nhớ.&lt;/li&gt;&#xa;&lt;li data-sourcepos=&quot;9:3-9:62&quot;&gt;Truy cập các phần tử bằng chỉ số (index) có hiệu suất cao.&lt;/li&gt;&#xa;&lt;li data-sourcepos=&quot;10:3-10:57&quot;&gt;Kích thước mảng thường được cố định sau khi khai báo.&lt;/li&gt;&#xa;&lt;/ul&gt;&#xa;&lt;/li&gt;&#xa;&lt;li data-sourcepos=&quot;11:1-15:0&quot;&gt;&lt;strong&gt;Ứng dụng phổ biến:&lt;/strong&gt;&#xa;&lt;ul data-sourcepos=&quot;12:3-15:0&quot;&gt;&#xa;&lt;li data-sourcepos=&quot;12:3-12:92&quot;&gt;Lưu trữ các danh sách số liệu có thứ tự (ví dụ: danh sách điểm số, danh sách sinh viên).&lt;/li&gt;&#xa;&lt;li data-sourcepos=&quot;13:3-13:50&quot;&gt;Tạo các ma trận để biểu diễn dữ liệu đa chiều.&lt;/li&gt;&#xa;&lt;li data-sourcepos=&quot;14:3-15:0&quot;&gt;Thực hiện các thuật toán tìm kiếm và sắp xếp.&lt;/li&gt;&#xa;&lt;/ul&gt;&#xa;&lt;/li&gt;&#xa;&lt;/ul&gt;&lt;h3 data-sourcepos=&quot;16:1-16:35&quot;&gt;Danh sách liên kết (LinkedList)&lt;/h3&gt;&lt;ul data-sourcepos=&quot;18:1-25:0&quot;&gt;&#xa;&lt;li data-sourcepos=&quot;18:1-21:75&quot;&gt;&lt;strong&gt;Đặc điểm chính:&lt;/strong&gt;&#xa;&lt;ul data-sourcepos=&quot;19:3-21:75&quot;&gt;&#xa;&lt;li data-sourcepos=&quot;19:3-19:122&quot;&gt;Các phần tử được lưu trữ không liên tiếp trong bộ nhớ, mỗi phần tử chứa dữ liệu và một liên kết đến phần tử tiếp theo.&lt;/li&gt;&#xa;&lt;li data-sourcepos=&quot;20:3-20:46&quot;&gt;Kích thước danh sách có thể thay đổi động.&lt;/li&gt;&#xa;&lt;li data-sourcepos=&quot;21:3-21:75&quot;&gt;Truy cập các phần tử không bằng chỉ số, mà phải duyệt từ đầu danh sách.&lt;/li&gt;&#xa;&lt;/ul&gt;&#xa;&lt;/li&gt;&#xa;&lt;li data-sourcepos=&quot;22:1-25:0&quot;&gt;&lt;strong&gt;Ứng dụng phổ biến:&lt;/strong&gt;&#xa;&lt;ul data-sourcepos=&quot;23:3-25:0&quot;&gt;&#xa;&lt;li data-sourcepos=&quot;23:3-23:101&quot;&gt;Thực hiện các thao tác chèn và xóa phần tử ở bất kỳ vị trí nào trong danh sách một cách hiệu quả.&lt;/li&gt;&#xa;&lt;li data-sourcepos=&quot;24:3-25:0&quot;&gt;Thực hiện các thuật toán liên quan đến danh sách như đảo ngược danh sách, tìm kiếm phần tử.&lt;/li&gt;&#xa;&lt;/ul&gt;&#xa;&lt;/li&gt;&#xa;&lt;/ul&gt;&lt;h3 data-sourcepos=&quot;26:1-26:20&quot;&gt;Ngăn xếp (Stack)&lt;/h3&gt;&lt;ul data-sourcepos=&quot;28:1-35:0&quot;&gt;&#xa;&lt;li data-sourcepos=&quot;28:1-30:77&quot;&gt;&lt;strong&gt;Đặc điểm chính:&lt;/strong&gt;&#xa;&lt;ul data-sourcepos=&quot;29:3-30:77&quot;&gt;&#xa;&lt;li data-sourcepos=&quot;29:3-29:117&quot;&gt;Tuân theo nguyên tắc LIFO (Last In First Out): phần tử cuối cùng được đưa vào sẽ là phần tử đầu tiên được lấy ra.&lt;/li&gt;&#xa;&lt;li data-sourcepos=&quot;30:3-30:77&quot;&gt;Các thao tác chính: push (đưa vào), pop (lấy ra), peek (xem phần tử đầu).&lt;/li&gt;&#xa;&lt;/ul&gt;&#xa;&lt;/li&gt;&#xa;&lt;li data-sourcepos=&quot;31:1-35:0&quot;&gt;&lt;strong&gt;Ứng dụng phổ biến:&lt;/strong&gt;&#xa;&lt;ul data-sourcepos=&quot;32:3-35:0&quot;&gt;&#xa;&lt;li data-sourcepos=&quot;32:3-32:49&quot;&gt;Quản lý gọi hàm trong các ngôn ngữ lập trình.&lt;/li&gt;&#xa;&lt;li data-sourcepos=&quot;33:3-33:36&quot;&gt;Thực hiện các thuật toán đệ quy.&lt;/li&gt;&#xa;&lt;li data-sourcepos=&quot;34:3-35:0&quot;&gt;Kiểm tra biểu thức toán học có hợp lệ hay không.&lt;/li&gt;&#xa;&lt;/ul&gt;&#xa;&lt;/li&gt;&#xa;&lt;/ul&gt;&lt;h3 data-sourcepos=&quot;36:1-36:20&quot;&gt;Hàng đợi (Queue)&lt;/h3&gt;&lt;ul data-sourcepos=&quot;38:1-45:0&quot;&gt;&#xa;&lt;li data-sourcepos=&quot;38:1-40:60&quot;&gt;&lt;strong&gt;Đặc điểm chính:&lt;/strong&gt;&#xa;&lt;ul data-sourcepos=&quot;39:3-40:60&quot;&gt;&#xa;&lt;li data-sourcepos=&quot;39:3-39:117&quot;&gt;Tuân theo nguyên tắc FIFO (First In First Out): phần tử đầu tiên được đưa vào sẽ là phần tử đầu tiên được lấy ra.&lt;/li&gt;&#xa;&lt;li data-sourcepos=&quot;40:3-40:60&quot;&gt;Các thao tác chính: enqueue (đưa vào), dequeue (lấy ra).&lt;/li&gt;&#xa;&lt;/ul&gt;&#xa;&lt;/li&gt;&#xa;&lt;li data-sourcepos=&quot;41:1-45:0&quot;&gt;&lt;strong&gt;Ứng dụng phổ biến:&lt;/strong&gt;&#xa;&lt;ul data-sourcepos=&quot;42:3-45:0&quot;&gt;&#xa;&lt;li data-sourcepos=&quot;42:3-42:33&quot;&gt;Quản lý các tác vụ chờ xử lý.&lt;/li&gt;&#xa;&lt;li data-sourcepos=&quot;43:3-43:54&quot;&gt;Thực hiện các thuật toán tìm kiếm theo chiều rộng.&lt;/li&gt;&#xa;&lt;li data-sourcepos=&quot;44:3-45:0&quot;&gt;Xử lý các sự kiện theo thứ tự.&lt;/li&gt;&#xa;&lt;/ul&gt;&#xa;&lt;/li&gt;&#xa;&lt;/ul&gt;&lt;h3 data-sourcepos=&quot;46:1-46:14&quot;&gt;Cây (Tree)&lt;/h3&gt;&lt;ul data-sourcepos=&quot;48:1-55:0&quot;&gt;&#xa;&lt;li data-sourcepos=&quot;48:1-50:88&quot;&gt;&lt;strong&gt;Đặc điểm chính:&lt;/strong&gt;&#xa;&lt;ul data-sourcepos=&quot;49:3-50:88&quot;&gt;&#xa;&lt;li data-sourcepos=&quot;49:3-49:85&quot;&gt;Là một cấu trúc dữ liệu phi tuyến tính, trong đó mỗi nút có thể có nhiều nút con.&lt;/li&gt;&#xa;&lt;li data-sourcepos=&quot;50:3-50:88&quot;&gt;Có nhiều loại cây khác nhau như cây nhị phân, cây nhị phân tìm kiếm, cây AVL, cây B.&lt;/li&gt;&#xa;&lt;/ul&gt;&#xa;&lt;/li&gt;&#xa;&lt;li data-sourcepos=&quot;51:1-55:0&quot;&gt;&lt;strong&gt;Ứng dụng phổ biến:&lt;/strong&gt;&#xa;&lt;ul data-sourcepos=&quot;52:3-55:0&quot;&gt;&#xa;&lt;li data-sourcepos=&quot;52:3-52:58&quot;&gt;Thực hiện các thuật toán sắp xếp và tìm kiếm hiệu quả.&lt;/li&gt;&#xa;&lt;li data-sourcepos=&quot;53:3-53:70&quot;&gt;Biểu diễn các cấu trúc phân cấp như hệ thống thư mục, cây gia phả.&lt;/li&gt;&#xa;&lt;li data-sourcepos=&quot;54:3-55:0&quot;&gt;Xây dựng các cấu trúc dữ liệu khác như heap, trie.&lt;/li&gt;&#xa;&lt;/ul&gt;&#xa;&lt;/li&gt;&#xa;&lt;/ul&gt;&lt;h3 data-sourcepos=&quot;56:1-56:18&quot;&gt;Đồ thị (Graph)&lt;/h3&gt;&lt;ul data-sourcepos=&quot;58:1-65:0&quot;&gt;&#xa;&lt;li data-sourcepos=&quot;58:1-60:67&quot;&gt;&lt;strong&gt;Đặc điểm chính:&lt;/strong&gt;&#xa;&lt;ul data-sourcepos=&quot;59:3-60:67&quot;&gt;&#xa;&lt;li data-sourcepos=&quot;59:3-59:84&quot;&gt;Gồm một tập hợp các nút (vertex) và một tập hợp các cạnh (edge) kết nối các nút.&lt;/li&gt;&#xa;&lt;li data-sourcepos=&quot;60:3-60:67&quot;&gt;Có thể có hướng hoặc vô hướng, có trọng số hoặc không trọng số.&lt;/li&gt;&#xa;&lt;/ul&gt;&#xa;&lt;/li&gt;&#xa;&lt;li data-sourcepos=&quot;61:1-65:0&quot;&gt;&lt;strong&gt;Ứng dụng phổ biến:&lt;/strong&gt;&#xa;&lt;ul data-sourcepos=&quot;62:3-65:0&quot;&gt;&#xa;&lt;li data-sourcepos=&quot;62:3-62:58&quot;&gt;Biểu diễn các mạng xã hội, bản đồ đường đi, mạch điện.&lt;/li&gt;&#xa;&lt;li data-sourcepos=&quot;63:3-63:76&quot;&gt;Thực hiện các thuật toán tìm đường đi ngắn nhất, tìm cây khung nhỏ nhất.&lt;/li&gt;&#xa;&lt;li data-sourcepos=&quot;64:3-65:0&quot;&gt;Giải quyết các bài toán tối ưu hóa.&lt;/li&gt;&#xa;&lt;/ul&gt;&#xa;&lt;/li&gt;&#xa;&lt;/ul&gt;&lt;p data-sourcepos=&quot;66:1-66:66&quot;&gt;&lt;strong&gt;Khi chọn cấu trúc dữ liệu phù hợp, cần xem xét các yếu tố sau:&lt;/strong&gt;&lt;/p&gt;&lt;ul data-sourcepos=&quot;68:1-71:0&quot;&gt;&#xa;&lt;li data-sourcepos=&quot;68:1-68:115&quot;&gt;&lt;strong&gt;Tính chất của dữ liệu:&lt;/strong&gt; Dữ liệu có thứ tự không, có cần chèn/xóa nhanh không, có cần tìm kiếm theo khóa không?&lt;/li&gt;&#xa;&lt;li data-sourcepos=&quot;69:1-69:107&quot;&gt;&lt;strong&gt;Các thao tác thường xuyên:&lt;/strong&gt; Cần thực hiện các thao tác nào nhiều nhất (truy cập, chèn, xóa, tìm kiếm)?&lt;/li&gt;&#xa;&lt;li data-sourcepos=&quot;70:1-71:0&quot;&gt;&lt;strong&gt;Yêu cầu về không gian và thời gian:&lt;/strong&gt; Cấu trúc dữ liệu nào sử dụng ít bộ nhớ hơn và có thời gian truy xuất nhanh hơn?&lt;/li&gt;&lt;/ul&gt;&#xa;&#xa;" style="whiteSpace=wrap;html=1;aspect=fixed;" vertex="1" parent="1">
          <mxGeometry x="50" y="150" width="2210" height="2210" as="geometry" />
        </mxCell>
      </root>
    </mxGraphModel>
  </diagram>
  <diagram id="GnE7cks3cC8nUN1o_wzP" name="Page-3">
    <mxGraphModel dx="1666" dy="815" grid="1" gridSize="10" guides="1" tooltips="1" connect="1" arrows="1" fold="1" page="1" pageScale="1" pageWidth="850" pageHeight="1100" math="0" shadow="0">
      <root>
        <mxCell id="0" />
        <mxCell id="1" parent="0" />
        <mxCell id="rlpuAGeXyM2G9tmgiCBU-1" value="&lt;h3 data-sourcepos=&quot;3:1-3:56&quot;&gt;1. Lưu trữ danh sách sinh viên theo thứ tự nhập vào:&lt;/h3&gt;&lt;ul data-sourcepos=&quot;4:1-8:0&quot;&gt;&#xa;&lt;li data-sourcepos=&quot;4:1-4:64&quot;&gt;&lt;strong&gt;Cấu trúc dữ liệu phù hợp:&lt;/strong&gt; Danh sách liên kết (LinkedList).&lt;/li&gt;&#xa;&lt;li data-sourcepos=&quot;5:1-8:0&quot;&gt;&lt;strong&gt;Lý do:&lt;/strong&gt;&#xa;&lt;ul data-sourcepos=&quot;6:5-8:0&quot;&gt;&#xa;&lt;li data-sourcepos=&quot;6:5-6:172&quot;&gt;Danh sách liên kết cho phép chèn thêm phần tử vào bất kỳ vị trí nào trong danh sách một cách dễ dàng và hiệu quả, đặc biệt là khi không biết trước số lượng sinh viên.&lt;/li&gt;&#xa;&lt;li data-sourcepos=&quot;7:5-8:0&quot;&gt;Thứ tự các phần tử trong danh sách liên kết sẽ luôn được bảo toàn theo thứ tự chèn vào.&lt;/li&gt;&#xa;&lt;/ul&gt;&#xa;&lt;/li&gt;&#xa;&lt;/ul&gt;&lt;h3 data-sourcepos=&quot;9:1-9:75&quot;&gt;2. Tìm kiếm nhanh tên một sản phẩm trong danh sách hàng triệu sản phẩm:&lt;/h3&gt;&lt;ul data-sourcepos=&quot;10:1-14:0&quot;&gt;&#xa;&lt;li data-sourcepos=&quot;10:1-10:54&quot;&gt;&lt;strong&gt;Cấu trúc dữ liệu phù hợp:&lt;/strong&gt; Bảng băm (Hash Table).&lt;/li&gt;&#xa;&lt;li data-sourcepos=&quot;11:1-14:0&quot;&gt;&lt;strong&gt;Lý do:&lt;/strong&gt;&#xa;&lt;ul data-sourcepos=&quot;12:5-14:0&quot;&gt;&#xa;&lt;li data-sourcepos=&quot;12:5-12:157&quot;&gt;Bảng băm cung cấp khả năng truy cập các phần tử với độ phức tạp thời gian trung bình là O(1), tức là rất nhanh, ngay cả khi danh sách sản phẩm rất lớn.&lt;/li&gt;&#xa;&lt;li data-sourcepos=&quot;13:5-14:0&quot;&gt;Bảng băm sử dụng hàm băm để ánh xạ khóa (tên sản phẩm) vào một vị trí trong bảng, giúp tìm kiếm nhanh chóng.&lt;/li&gt;&#xa;&lt;/ul&gt;&#xa;&lt;/li&gt;&#xa;&lt;/ul&gt;&lt;h3 data-sourcepos=&quot;15:1-15:74&quot;&gt;3. Quản lý danh sách các task công việc cần xử lý theo thứ tự ưu tiên:&lt;/h3&gt;&lt;ul data-sourcepos=&quot;16:1-20:0&quot;&gt;&#xa;&lt;li data-sourcepos=&quot;16:1-16:66&quot;&gt;&lt;strong&gt;Cấu trúc dữ liệu phù hợp:&lt;/strong&gt; Hàng đợi ưu tiên (Priority Queue).&lt;/li&gt;&#xa;&lt;li data-sourcepos=&quot;17:1-20:0&quot;&gt;&lt;strong&gt;Lý do:&lt;/strong&gt;&#xa;&lt;ul data-sourcepos=&quot;18:5-20:0&quot;&gt;&#xa;&lt;li data-sourcepos=&quot;18:5-18:143&quot;&gt;Hàng đợi ưu tiên cho phép sắp xếp các phần tử theo một tiêu chí ưu tiên nhất định (trong trường hợp này là mức độ ưu tiên của công việc).&lt;/li&gt;&#xa;&lt;li data-sourcepos=&quot;19:5-20:0&quot;&gt;Phần tử có ưu tiên cao nhất sẽ luôn được lấy ra đầu tiên, đảm bảo công việc quan trọng được xử lý trước.&lt;/li&gt;&#xa;&lt;/ul&gt;&#xa;&lt;/li&gt;&#xa;&lt;/ul&gt;&lt;h3 data-sourcepos=&quot;21:1-21:62&quot;&gt;4. Lưu trữ dữ liệu hệ thống phân cấp như thư mục máy tính:&lt;/h3&gt;&lt;ul data-sourcepos=&quot;22:1-27:0&quot;&gt;&#xa;&lt;li data-sourcepos=&quot;22:1-22:66&quot;&gt;&lt;strong&gt;Cấu trúc dữ liệu phù hợp:&lt;/strong&gt; Cây (Tree), cụ thể là cây thư mục.&lt;/li&gt;&#xa;&lt;li data-sourcepos=&quot;23:1-27:0&quot;&gt;&lt;strong&gt;Lý do:&lt;/strong&gt;&#xa;&lt;ul data-sourcepos=&quot;24:5-27:0&quot;&gt;&#xa;&lt;li data-sourcepos=&quot;24:5-24:93&quot;&gt;Cây giúp biểu diễn mối quan hệ cha con giữa các thư mục một cách trực quan và hiệu quả.&lt;/li&gt;&#xa;&lt;li data-sourcepos=&quot;25:5-25:73&quot;&gt;Mỗi thư mục là một nút trong cây, và thư mục con là nút con của nó.&lt;/li&gt;&#xa;&lt;li data-sourcepos=&quot;26:5-27:0&quot;&gt;Cây cho phép thực hiện các thao tạo như tạo thư mục mới, xóa thư mục, tìm kiếm thư mục một cách dễ dàng.&lt;/li&gt;&#xa;&lt;/ul&gt;&#xa;&lt;/li&gt;&#xa;&lt;/ul&gt;&lt;h3 data-sourcepos=&quot;28:1-28:54&quot;&gt;5. Tìm đường đi ngắn nhất giữa 2 điểm trên bản đồ:&lt;/h3&gt;&lt;ul data-sourcepos=&quot;29:1-33:0&quot;&gt;&#xa;&lt;li data-sourcepos=&quot;29:1-29:47&quot;&gt;&lt;strong&gt;Cấu trúc dữ liệu phù hợp:&lt;/strong&gt; Đồ thị (Graph).&lt;/li&gt;&#xa;&lt;li data-sourcepos=&quot;30:1-33:0&quot;&gt;&lt;strong&gt;Lý do:&lt;/strong&gt;&#xa;&lt;ul data-sourcepos=&quot;31:5-33:0&quot;&gt;&#xa;&lt;li data-sourcepos=&quot;31:5-31:140&quot;&gt;Đồ thị là cấu trúc dữ liệu lý tưởng để biểu diễn các mối quan hệ giữa các đối tượng, trong trường hợp này là các địa điểm trên bản đồ.&lt;/li&gt;&#xa;&lt;li data-sourcepos=&quot;32:5-33:0&quot;&gt;Các thuật toán tìm đường đi ngắn nhất như Dijkstra, A* có thể được áp dụng trên đồ thị để tìm ra đường đi ngắn nhất giữa hai điểm.&lt;/li&gt;&lt;/ul&gt;&lt;/li&gt;&lt;/ul&gt;" style="text;whiteSpace=wrap;html=1;" vertex="1" parent="1">
          <mxGeometry x="20" y="220" width="810" height="1200" as="geometry" />
        </mxCell>
      </root>
    </mxGraphModel>
  </diagram>
  <diagram id="XeBUrX3OSCWd4nlWcO59" name="Page-4">
    <mxGraphModel dx="1666" dy="815" grid="1" gridSize="10" guides="1" tooltips="1" connect="1" arrows="1" fold="1" page="1" pageScale="1" pageWidth="850" pageHeight="1100" math="0" shadow="0">
      <root>
        <mxCell id="0" />
        <mxCell id="1" parent="0" />
        <mxCell id="8W_uotofygLpMGvRKHOS-3" style="edgeStyle=orthogonalEdgeStyle;rounded=0;orthogonalLoop=1;jettySize=auto;html=1;exitX=0.5;exitY=1;exitDx=0;exitDy=0;entryX=0.5;entryY=0;entryDx=0;entryDy=0;" edge="1" parent="1" source="8W_uotofygLpMGvRKHOS-1" target="8W_uotofygLpMGvRKHOS-2">
          <mxGeometry relative="1" as="geometry" />
        </mxCell>
        <mxCell id="8W_uotofygLpMGvRKHOS-1" value="bắt đầu" style="ellipse;whiteSpace=wrap;html=1;" vertex="1" parent="1">
          <mxGeometry x="370" y="140" width="120" height="80" as="geometry" />
        </mxCell>
        <mxCell id="8W_uotofygLpMGvRKHOS-2" value="nhập số n" style="shape=parallelogram;perimeter=parallelogramPerimeter;whiteSpace=wrap;html=1;fixedSize=1;" vertex="1" parent="1">
          <mxGeometry x="365" y="240" width="120" height="60" as="geometry" />
        </mxCell>
        <mxCell id="8W_uotofygLpMGvRKHOS-8" style="edgeStyle=orthogonalEdgeStyle;rounded=0;orthogonalLoop=1;jettySize=auto;html=1;exitX=0;exitY=0.5;exitDx=0;exitDy=0;entryX=0.5;entryY=0;entryDx=0;entryDy=0;" edge="1" parent="1" source="8W_uotofygLpMGvRKHOS-4" target="8W_uotofygLpMGvRKHOS-7">
          <mxGeometry relative="1" as="geometry">
            <Array as="points">
              <mxPoint x="290" y="370" />
            </Array>
          </mxGeometry>
        </mxCell>
        <mxCell id="8W_uotofygLpMGvRKHOS-4" value="if n%2==0" style="rhombus;whiteSpace=wrap;html=1;" vertex="1" parent="1">
          <mxGeometry x="390" y="330" width="80" height="80" as="geometry" />
        </mxCell>
        <mxCell id="8W_uotofygLpMGvRKHOS-5" style="edgeStyle=orthogonalEdgeStyle;rounded=0;orthogonalLoop=1;jettySize=auto;html=1;exitX=0.5;exitY=1;exitDx=0;exitDy=0;entryX=0.463;entryY=0.1;entryDx=0;entryDy=0;entryPerimeter=0;" edge="1" parent="1" source="8W_uotofygLpMGvRKHOS-2" target="8W_uotofygLpMGvRKHOS-4">
          <mxGeometry relative="1" as="geometry" />
        </mxCell>
        <mxCell id="8W_uotofygLpMGvRKHOS-21" style="edgeStyle=orthogonalEdgeStyle;rounded=0;orthogonalLoop=1;jettySize=auto;html=1;exitX=0.5;exitY=1;exitDx=0;exitDy=0;" edge="1" parent="1" source="8W_uotofygLpMGvRKHOS-6">
          <mxGeometry relative="1" as="geometry">
            <mxPoint x="450" y="600" as="targetPoint" />
          </mxGeometry>
        </mxCell>
        <mxCell id="8W_uotofygLpMGvRKHOS-6" value="số lẻ" style="shape=parallelogram;perimeter=parallelogramPerimeter;whiteSpace=wrap;html=1;fixedSize=1;" vertex="1" parent="1">
          <mxGeometry x="560" y="440" width="120" height="60" as="geometry" />
        </mxCell>
        <mxCell id="8W_uotofygLpMGvRKHOS-20" style="edgeStyle=orthogonalEdgeStyle;rounded=0;orthogonalLoop=1;jettySize=auto;html=1;exitX=0.5;exitY=1;exitDx=0;exitDy=0;" edge="1" parent="1" source="8W_uotofygLpMGvRKHOS-7" target="8W_uotofygLpMGvRKHOS-15">
          <mxGeometry relative="1" as="geometry" />
        </mxCell>
        <mxCell id="8W_uotofygLpMGvRKHOS-7" value="số chẵn" style="shape=parallelogram;perimeter=parallelogramPerimeter;whiteSpace=wrap;html=1;fixedSize=1;" vertex="1" parent="1">
          <mxGeometry x="230" y="440" width="120" height="60" as="geometry" />
        </mxCell>
        <mxCell id="8W_uotofygLpMGvRKHOS-9" style="edgeStyle=orthogonalEdgeStyle;rounded=0;orthogonalLoop=1;jettySize=auto;html=1;exitX=1;exitY=0.5;exitDx=0;exitDy=0;entryX=0.642;entryY=-0.033;entryDx=0;entryDy=0;entryPerimeter=0;" edge="1" parent="1" source="8W_uotofygLpMGvRKHOS-4" target="8W_uotofygLpMGvRKHOS-6">
          <mxGeometry relative="1" as="geometry">
            <Array as="points">
              <mxPoint x="637" y="370" />
            </Array>
          </mxGeometry>
        </mxCell>
        <mxCell id="8W_uotofygLpMGvRKHOS-10" value="true" style="text;html=1;align=center;verticalAlign=middle;resizable=0;points=[];autosize=1;strokeColor=none;fillColor=none;" vertex="1" parent="1">
          <mxGeometry x="290" y="338" width="40" height="30" as="geometry" />
        </mxCell>
        <mxCell id="8W_uotofygLpMGvRKHOS-11" value="false" style="text;html=1;align=center;verticalAlign=middle;resizable=0;points=[];autosize=1;strokeColor=none;fillColor=none;" vertex="1" parent="1">
          <mxGeometry x="545" y="348" width="50" height="30" as="geometry" />
        </mxCell>
        <mxCell id="8W_uotofygLpMGvRKHOS-15" value="end" style="ellipse;whiteSpace=wrap;html=1;" vertex="1" parent="1">
          <mxGeometry x="385" y="600" width="120" height="80" as="geometry" />
        </mxCell>
      </root>
    </mxGraphModel>
  </diagram>
  <diagram id="4ZRdLq5WryJoLta8qqJ0" name="Page-5">
    <mxGraphModel dx="1666" dy="815" grid="1" gridSize="10" guides="1" tooltips="1" connect="1" arrows="1" fold="1" page="1" pageScale="1" pageWidth="850" pageHeight="1100" math="0" shadow="0">
      <root>
        <mxCell id="0" />
        <mxCell id="1" parent="0" />
        <mxCell id="JhxJ4mh6Yc0TC-XKSI2A-3" style="edgeStyle=orthogonalEdgeStyle;rounded=0;orthogonalLoop=1;jettySize=auto;html=1;entryX=0.5;entryY=0;entryDx=0;entryDy=0;" edge="1" parent="1" source="JhxJ4mh6Yc0TC-XKSI2A-1" target="JhxJ4mh6Yc0TC-XKSI2A-2">
          <mxGeometry relative="1" as="geometry" />
        </mxCell>
        <mxCell id="JhxJ4mh6Yc0TC-XKSI2A-1" value="start" style="ellipse;whiteSpace=wrap;html=1;" vertex="1" parent="1">
          <mxGeometry x="340" y="220" width="120" height="80" as="geometry" />
        </mxCell>
        <mxCell id="JhxJ4mh6Yc0TC-XKSI2A-5" style="edgeStyle=orthogonalEdgeStyle;rounded=0;orthogonalLoop=1;jettySize=auto;html=1;" edge="1" parent="1" source="JhxJ4mh6Yc0TC-XKSI2A-2" target="JhxJ4mh6Yc0TC-XKSI2A-4">
          <mxGeometry relative="1" as="geometry" />
        </mxCell>
        <mxCell id="JhxJ4mh6Yc0TC-XKSI2A-2" value="nhập a,b,c&lt;div&gt;max&lt;/div&gt;" style="shape=parallelogram;perimeter=parallelogramPerimeter;whiteSpace=wrap;html=1;fixedSize=1;" vertex="1" parent="1">
          <mxGeometry x="340" y="370" width="120" height="60" as="geometry" />
        </mxCell>
        <mxCell id="JhxJ4mh6Yc0TC-XKSI2A-7" style="edgeStyle=orthogonalEdgeStyle;rounded=0;orthogonalLoop=1;jettySize=auto;html=1;exitX=0.5;exitY=1;exitDx=0;exitDy=0;" edge="1" parent="1" source="JhxJ4mh6Yc0TC-XKSI2A-4" target="JhxJ4mh6Yc0TC-XKSI2A-6">
          <mxGeometry relative="1" as="geometry" />
        </mxCell>
        <mxCell id="JhxJ4mh6Yc0TC-XKSI2A-11" value="true" style="edgeLabel;html=1;align=center;verticalAlign=middle;resizable=0;points=[];" vertex="1" connectable="0" parent="JhxJ4mh6Yc0TC-XKSI2A-7">
          <mxGeometry x="-0.15" y="2" relative="1" as="geometry">
            <mxPoint as="offset" />
          </mxGeometry>
        </mxCell>
        <mxCell id="JhxJ4mh6Yc0TC-XKSI2A-9" style="edgeStyle=orthogonalEdgeStyle;rounded=0;orthogonalLoop=1;jettySize=auto;html=1;exitX=1;exitY=0.5;exitDx=0;exitDy=0;entryX=0;entryY=0.5;entryDx=0;entryDy=0;" edge="1" parent="1" source="JhxJ4mh6Yc0TC-XKSI2A-4" target="JhxJ4mh6Yc0TC-XKSI2A-8">
          <mxGeometry relative="1" as="geometry" />
        </mxCell>
        <mxCell id="JhxJ4mh6Yc0TC-XKSI2A-10" value="false" style="edgeLabel;html=1;align=center;verticalAlign=middle;resizable=0;points=[];" vertex="1" connectable="0" parent="JhxJ4mh6Yc0TC-XKSI2A-9">
          <mxGeometry x="-0.1111" y="1" relative="1" as="geometry">
            <mxPoint as="offset" />
          </mxGeometry>
        </mxCell>
        <mxCell id="JhxJ4mh6Yc0TC-XKSI2A-4" value="if a&amp;gt;b" style="rhombus;whiteSpace=wrap;html=1;" vertex="1" parent="1">
          <mxGeometry x="360" y="470" width="80" height="80" as="geometry" />
        </mxCell>
        <mxCell id="JhxJ4mh6Yc0TC-XKSI2A-14" value="" style="edgeStyle=orthogonalEdgeStyle;rounded=0;orthogonalLoop=1;jettySize=auto;html=1;" edge="1" parent="1" source="JhxJ4mh6Yc0TC-XKSI2A-6" target="JhxJ4mh6Yc0TC-XKSI2A-12">
          <mxGeometry relative="1" as="geometry" />
        </mxCell>
        <mxCell id="JhxJ4mh6Yc0TC-XKSI2A-6" value="max=a" style="rounded=0;whiteSpace=wrap;html=1;" vertex="1" parent="1">
          <mxGeometry x="340" y="630" width="120" height="60" as="geometry" />
        </mxCell>
        <mxCell id="JhxJ4mh6Yc0TC-XKSI2A-13" value="" style="edgeStyle=orthogonalEdgeStyle;rounded=0;orthogonalLoop=1;jettySize=auto;html=1;" edge="1" parent="1" source="JhxJ4mh6Yc0TC-XKSI2A-8" target="JhxJ4mh6Yc0TC-XKSI2A-12">
          <mxGeometry relative="1" as="geometry" />
        </mxCell>
        <mxCell id="JhxJ4mh6Yc0TC-XKSI2A-8" value="max=b" style="rounded=0;whiteSpace=wrap;html=1;" vertex="1" parent="1">
          <mxGeometry x="530" y="480" width="120" height="60" as="geometry" />
        </mxCell>
        <mxCell id="JhxJ4mh6Yc0TC-XKSI2A-16" value="" style="edgeStyle=orthogonalEdgeStyle;rounded=0;orthogonalLoop=1;jettySize=auto;html=1;" edge="1" parent="1" source="JhxJ4mh6Yc0TC-XKSI2A-12" target="JhxJ4mh6Yc0TC-XKSI2A-15">
          <mxGeometry relative="1" as="geometry" />
        </mxCell>
        <mxCell id="JhxJ4mh6Yc0TC-XKSI2A-18" value="" style="edgeStyle=orthogonalEdgeStyle;rounded=0;orthogonalLoop=1;jettySize=auto;html=1;" edge="1" parent="1" source="JhxJ4mh6Yc0TC-XKSI2A-12" target="JhxJ4mh6Yc0TC-XKSI2A-17">
          <mxGeometry relative="1" as="geometry" />
        </mxCell>
        <mxCell id="JhxJ4mh6Yc0TC-XKSI2A-12" value="if max&amp;gt;c" style="rhombus;whiteSpace=wrap;html=1;rounded=0;" vertex="1" parent="1">
          <mxGeometry x="550" y="620" width="80" height="80" as="geometry" />
        </mxCell>
        <mxCell id="JhxJ4mh6Yc0TC-XKSI2A-21" value="" style="edgeStyle=orthogonalEdgeStyle;rounded=0;orthogonalLoop=1;jettySize=auto;html=1;" edge="1" parent="1" source="JhxJ4mh6Yc0TC-XKSI2A-15" target="JhxJ4mh6Yc0TC-XKSI2A-19">
          <mxGeometry relative="1" as="geometry" />
        </mxCell>
        <mxCell id="JhxJ4mh6Yc0TC-XKSI2A-15" value="max= max" style="rounded=0;whiteSpace=wrap;html=1;" vertex="1" parent="1">
          <mxGeometry x="530" y="790" width="120" height="60" as="geometry" />
        </mxCell>
        <mxCell id="JhxJ4mh6Yc0TC-XKSI2A-20" value="" style="edgeStyle=orthogonalEdgeStyle;rounded=0;orthogonalLoop=1;jettySize=auto;html=1;" edge="1" parent="1" source="JhxJ4mh6Yc0TC-XKSI2A-17" target="JhxJ4mh6Yc0TC-XKSI2A-19">
          <mxGeometry relative="1" as="geometry" />
        </mxCell>
        <mxCell id="JhxJ4mh6Yc0TC-XKSI2A-17" value="max=c" style="rounded=0;whiteSpace=wrap;html=1;" vertex="1" parent="1">
          <mxGeometry x="710" y="630" width="120" height="60" as="geometry" />
        </mxCell>
        <mxCell id="JhxJ4mh6Yc0TC-XKSI2A-23" value="" style="edgeStyle=orthogonalEdgeStyle;rounded=0;orthogonalLoop=1;jettySize=auto;html=1;" edge="1" parent="1" source="JhxJ4mh6Yc0TC-XKSI2A-19" target="JhxJ4mh6Yc0TC-XKSI2A-22">
          <mxGeometry relative="1" as="geometry" />
        </mxCell>
        <mxCell id="JhxJ4mh6Yc0TC-XKSI2A-19" value="in max" style="shape=parallelogram;perimeter=parallelogramPerimeter;whiteSpace=wrap;html=1;fixedSize=1;" vertex="1" parent="1">
          <mxGeometry x="710" y="790" width="120" height="60" as="geometry" />
        </mxCell>
        <mxCell id="JhxJ4mh6Yc0TC-XKSI2A-22" value="end" style="ellipse;whiteSpace=wrap;html=1;" vertex="1" parent="1">
          <mxGeometry x="710" y="910" width="120" height="80" as="geometry" />
        </mxCell>
      </root>
    </mxGraphModel>
  </diagram>
  <diagram id="Y0Nbms94_Rs3JvoZLW_w" name="Page-6">
    <mxGraphModel dx="1666" dy="815" grid="1" gridSize="10" guides="1" tooltips="1" connect="1" arrows="1" fold="1" page="1" pageScale="1" pageWidth="850" pageHeight="1100" math="0" shadow="0">
      <root>
        <mxCell id="0" />
        <mxCell id="1" parent="0" />
        <mxCell id="y-mEalOh7JKAmbc_CAks-3" value="" style="edgeStyle=orthogonalEdgeStyle;rounded=0;orthogonalLoop=1;jettySize=auto;html=1;" edge="1" parent="1" source="y-mEalOh7JKAmbc_CAks-1" target="y-mEalOh7JKAmbc_CAks-2">
          <mxGeometry relative="1" as="geometry" />
        </mxCell>
        <mxCell id="y-mEalOh7JKAmbc_CAks-1" value="start" style="ellipse;whiteSpace=wrap;html=1;" vertex="1" parent="1">
          <mxGeometry x="330" y="170" width="120" height="80" as="geometry" />
        </mxCell>
        <mxCell id="y-mEalOh7JKAmbc_CAks-5" value="" style="edgeStyle=orthogonalEdgeStyle;rounded=0;orthogonalLoop=1;jettySize=auto;html=1;" edge="1" parent="1" source="y-mEalOh7JKAmbc_CAks-2" target="y-mEalOh7JKAmbc_CAks-4">
          <mxGeometry relative="1" as="geometry" />
        </mxCell>
        <mxCell id="y-mEalOh7JKAmbc_CAks-13" value="true" style="edgeLabel;html=1;align=center;verticalAlign=middle;resizable=0;points=[];" vertex="1" connectable="0" parent="y-mEalOh7JKAmbc_CAks-5">
          <mxGeometry x="0.0571" y="-4" relative="1" as="geometry">
            <mxPoint as="offset" />
          </mxGeometry>
        </mxCell>
        <mxCell id="y-mEalOh7JKAmbc_CAks-2" value="nhập n" style="shape=parallelogram;perimeter=parallelogramPerimeter;whiteSpace=wrap;html=1;fixedSize=1;" vertex="1" parent="1">
          <mxGeometry x="330" y="340" width="120" height="60" as="geometry" />
        </mxCell>
        <mxCell id="y-mEalOh7JKAmbc_CAks-6" style="edgeStyle=orthogonalEdgeStyle;rounded=0;orthogonalLoop=1;jettySize=auto;html=1;entryX=1;entryY=0.5;entryDx=0;entryDy=0;" edge="1" parent="1" source="y-mEalOh7JKAmbc_CAks-4" target="y-mEalOh7JKAmbc_CAks-2">
          <mxGeometry relative="1" as="geometry">
            <Array as="points">
              <mxPoint x="500" y="520" />
              <mxPoint x="500" y="370" />
            </Array>
          </mxGeometry>
        </mxCell>
        <mxCell id="y-mEalOh7JKAmbc_CAks-7" value="false" style="edgeLabel;html=1;align=center;verticalAlign=middle;resizable=0;points=[];" vertex="1" connectable="0" parent="y-mEalOh7JKAmbc_CAks-6">
          <mxGeometry x="0.0759" relative="1" as="geometry">
            <mxPoint as="offset" />
          </mxGeometry>
        </mxCell>
        <mxCell id="y-mEalOh7JKAmbc_CAks-12" value="" style="edgeStyle=orthogonalEdgeStyle;rounded=0;orthogonalLoop=1;jettySize=auto;html=1;" edge="1" parent="1" source="y-mEalOh7JKAmbc_CAks-4" target="y-mEalOh7JKAmbc_CAks-10">
          <mxGeometry relative="1" as="geometry" />
        </mxCell>
        <mxCell id="y-mEalOh7JKAmbc_CAks-4" value="if n&amp;gt;0&lt;div&gt;int i=2&lt;/div&gt;&lt;div&gt;int a =1&lt;/div&gt;" style="rhombus;whiteSpace=wrap;html=1;" vertex="1" parent="1">
          <mxGeometry x="349" y="470" width="80" height="80" as="geometry" />
        </mxCell>
        <mxCell id="y-mEalOh7JKAmbc_CAks-15" value="" style="edgeStyle=orthogonalEdgeStyle;rounded=0;orthogonalLoop=1;jettySize=auto;html=1;" edge="1" parent="1" source="y-mEalOh7JKAmbc_CAks-10" target="y-mEalOh7JKAmbc_CAks-14">
          <mxGeometry relative="1" as="geometry" />
        </mxCell>
        <mxCell id="y-mEalOh7JKAmbc_CAks-16" value="true" style="edgeLabel;html=1;align=center;verticalAlign=middle;resizable=0;points=[];" vertex="1" connectable="0" parent="y-mEalOh7JKAmbc_CAks-15">
          <mxGeometry x="-0.3667" y="2" relative="1" as="geometry">
            <mxPoint as="offset" />
          </mxGeometry>
        </mxCell>
        <mxCell id="y-mEalOh7JKAmbc_CAks-19" value="" style="edgeStyle=orthogonalEdgeStyle;rounded=0;orthogonalLoop=1;jettySize=auto;html=1;" edge="1" parent="1" source="y-mEalOh7JKAmbc_CAks-10" target="y-mEalOh7JKAmbc_CAks-18">
          <mxGeometry relative="1" as="geometry" />
        </mxCell>
        <mxCell id="y-mEalOh7JKAmbc_CAks-10" value="if i&amp;lt;= n" style="rhombus;whiteSpace=wrap;html=1;" vertex="1" parent="1">
          <mxGeometry x="350" y="590" width="80" height="80" as="geometry" />
        </mxCell>
        <mxCell id="y-mEalOh7JKAmbc_CAks-17" style="edgeStyle=orthogonalEdgeStyle;rounded=0;orthogonalLoop=1;jettySize=auto;html=1;" edge="1" parent="1" source="y-mEalOh7JKAmbc_CAks-14" target="y-mEalOh7JKAmbc_CAks-10">
          <mxGeometry relative="1" as="geometry">
            <mxPoint x="290" y="570" as="targetPoint" />
            <Array as="points">
              <mxPoint x="260" y="760" />
              <mxPoint x="260" y="630" />
            </Array>
          </mxGeometry>
        </mxCell>
        <mxCell id="y-mEalOh7JKAmbc_CAks-14" value="a=a*i" style="rounded=0;whiteSpace=wrap;html=1;" vertex="1" parent="1">
          <mxGeometry x="330" y="730" width="120" height="60" as="geometry" />
        </mxCell>
        <mxCell id="y-mEalOh7JKAmbc_CAks-21" value="" style="edgeStyle=orthogonalEdgeStyle;rounded=0;orthogonalLoop=1;jettySize=auto;html=1;" edge="1" parent="1" source="y-mEalOh7JKAmbc_CAks-18" target="y-mEalOh7JKAmbc_CAks-20">
          <mxGeometry relative="1" as="geometry" />
        </mxCell>
        <mxCell id="y-mEalOh7JKAmbc_CAks-18" value="in ra a" style="shape=parallelogram;perimeter=parallelogramPerimeter;whiteSpace=wrap;html=1;fixedSize=1;" vertex="1" parent="1">
          <mxGeometry x="530" y="600" width="120" height="60" as="geometry" />
        </mxCell>
        <mxCell id="y-mEalOh7JKAmbc_CAks-20" value="end" style="ellipse;whiteSpace=wrap;html=1;" vertex="1" parent="1">
          <mxGeometry x="530" y="720" width="120" height="80" as="geometry" />
        </mxCell>
      </root>
    </mxGraphModel>
  </diagram>
  <diagram id="DAkH8RQOCSfgmlWicXFK" name="Page-7">
    <mxGraphModel dx="2810" dy="959" grid="1" gridSize="10" guides="1" tooltips="1" connect="1" arrows="1" fold="1" page="1" pageScale="1" pageWidth="850" pageHeight="1100" math="0" shadow="0">
      <root>
        <mxCell id="0" />
        <mxCell id="1" parent="0" />
        <mxCell id="lTy2XvYd9E1UGDLb3Sqx-3" style="edgeStyle=orthogonalEdgeStyle;rounded=0;orthogonalLoop=1;jettySize=auto;html=1;" edge="1" parent="1" source="lTy2XvYd9E1UGDLb3Sqx-1" target="lTy2XvYd9E1UGDLb3Sqx-2">
          <mxGeometry relative="1" as="geometry" />
        </mxCell>
        <mxCell id="lTy2XvYd9E1UGDLb3Sqx-1" value="start" style="ellipse;whiteSpace=wrap;html=1;" vertex="1" parent="1">
          <mxGeometry x="290" y="240" width="120" height="80" as="geometry" />
        </mxCell>
        <mxCell id="lTy2XvYd9E1UGDLb3Sqx-6" value="" style="edgeStyle=orthogonalEdgeStyle;rounded=0;orthogonalLoop=1;jettySize=auto;html=1;" edge="1" parent="1" source="lTy2XvYd9E1UGDLb3Sqx-2" target="lTy2XvYd9E1UGDLb3Sqx-5">
          <mxGeometry relative="1" as="geometry" />
        </mxCell>
        <mxCell id="lTy2XvYd9E1UGDLb3Sqx-2" value="int n&lt;div&gt;int arr[n]&lt;/div&gt;" style="shape=parallelogram;perimeter=parallelogramPerimeter;whiteSpace=wrap;html=1;fixedSize=1;" vertex="1" parent="1">
          <mxGeometry x="290" y="390" width="120" height="60" as="geometry" />
        </mxCell>
        <mxCell id="lTy2XvYd9E1UGDLb3Sqx-16" style="edgeStyle=orthogonalEdgeStyle;rounded=0;orthogonalLoop=1;jettySize=auto;html=1;entryX=1;entryY=0.5;entryDx=0;entryDy=0;" edge="1" parent="1" source="lTy2XvYd9E1UGDLb3Sqx-4" target="lTy2XvYd9E1UGDLb3Sqx-17">
          <mxGeometry relative="1" as="geometry">
            <mxPoint x="490" y="690" as="targetPoint" />
            <Array as="points">
              <mxPoint x="540" y="970" />
              <mxPoint x="540" y="660" />
            </Array>
          </mxGeometry>
        </mxCell>
        <mxCell id="lTy2XvYd9E1UGDLb3Sqx-4" value="arr[i] =a&lt;div&gt;i++&lt;/div&gt;" style="rounded=0;whiteSpace=wrap;html=1;" vertex="1" parent="1">
          <mxGeometry x="290" y="940" width="120" height="60" as="geometry" />
        </mxCell>
        <mxCell id="lTy2XvYd9E1UGDLb3Sqx-7" style="edgeStyle=orthogonalEdgeStyle;rounded=0;orthogonalLoop=1;jettySize=auto;html=1;entryX=1;entryY=0.75;entryDx=0;entryDy=0;" edge="1" parent="1" source="lTy2XvYd9E1UGDLb3Sqx-5" target="lTy2XvYd9E1UGDLb3Sqx-2">
          <mxGeometry relative="1" as="geometry">
            <Array as="points">
              <mxPoint x="490" y="520" />
              <mxPoint x="490" y="420" />
              <mxPoint x="396" y="420" />
            </Array>
          </mxGeometry>
        </mxCell>
        <mxCell id="lTy2XvYd9E1UGDLb3Sqx-8" value="false" style="edgeLabel;html=1;align=center;verticalAlign=middle;resizable=0;points=[];" vertex="1" connectable="0" parent="lTy2XvYd9E1UGDLb3Sqx-7">
          <mxGeometry x="0.0284" y="1" relative="1" as="geometry">
            <mxPoint as="offset" />
          </mxGeometry>
        </mxCell>
        <mxCell id="lTy2XvYd9E1UGDLb3Sqx-18" value="" style="edgeStyle=orthogonalEdgeStyle;rounded=0;orthogonalLoop=1;jettySize=auto;html=1;" edge="1" parent="1" source="lTy2XvYd9E1UGDLb3Sqx-5" target="lTy2XvYd9E1UGDLb3Sqx-17">
          <mxGeometry relative="1" as="geometry" />
        </mxCell>
        <mxCell id="lTy2XvYd9E1UGDLb3Sqx-19" value="true" style="edgeLabel;html=1;align=center;verticalAlign=middle;resizable=0;points=[];" vertex="1" connectable="0" parent="lTy2XvYd9E1UGDLb3Sqx-18">
          <mxGeometry x="-0.2" relative="1" as="geometry">
            <mxPoint as="offset" />
          </mxGeometry>
        </mxCell>
        <mxCell id="lTy2XvYd9E1UGDLb3Sqx-5" value="if n&amp;gt;0" style="rhombus;whiteSpace=wrap;html=1;" vertex="1" parent="1">
          <mxGeometry x="310" y="480" width="80" height="80" as="geometry" />
        </mxCell>
        <mxCell id="lTy2XvYd9E1UGDLb3Sqx-10" value="" style="edgeStyle=orthogonalEdgeStyle;rounded=0;orthogonalLoop=1;jettySize=auto;html=1;" edge="1" parent="1" source="lTy2XvYd9E1UGDLb3Sqx-9" target="lTy2XvYd9E1UGDLb3Sqx-4">
          <mxGeometry relative="1" as="geometry" />
        </mxCell>
        <mxCell id="lTy2XvYd9E1UGDLb3Sqx-9" value="int a" style="shape=parallelogram;perimeter=parallelogramPerimeter;whiteSpace=wrap;html=1;fixedSize=1;" vertex="1" parent="1">
          <mxGeometry x="290" y="750" width="120" height="60" as="geometry" />
        </mxCell>
        <mxCell id="lTy2XvYd9E1UGDLb3Sqx-20" value="" style="edgeStyle=orthogonalEdgeStyle;rounded=0;orthogonalLoop=1;jettySize=auto;html=1;" edge="1" parent="1" source="lTy2XvYd9E1UGDLb3Sqx-17" target="lTy2XvYd9E1UGDLb3Sqx-9">
          <mxGeometry relative="1" as="geometry" />
        </mxCell>
        <mxCell id="lTy2XvYd9E1UGDLb3Sqx-21" value="true" style="edgeLabel;html=1;align=center;verticalAlign=middle;resizable=0;points=[];" vertex="1" connectable="0" parent="lTy2XvYd9E1UGDLb3Sqx-20">
          <mxGeometry x="-0.2" y="1" relative="1" as="geometry">
            <mxPoint as="offset" />
          </mxGeometry>
        </mxCell>
        <mxCell id="lTy2XvYd9E1UGDLb3Sqx-32" style="edgeStyle=orthogonalEdgeStyle;rounded=0;orthogonalLoop=1;jettySize=auto;html=1;entryX=0.5;entryY=0;entryDx=0;entryDy=0;" edge="1" parent="1" source="lTy2XvYd9E1UGDLb3Sqx-17" target="lTy2XvYd9E1UGDLb3Sqx-31">
          <mxGeometry relative="1" as="geometry">
            <Array as="points">
              <mxPoint x="200" y="660" />
              <mxPoint x="200" y="630" />
              <mxPoint x="50" y="630" />
            </Array>
          </mxGeometry>
        </mxCell>
        <mxCell id="lTy2XvYd9E1UGDLb3Sqx-33" value="false" style="edgeLabel;html=1;align=center;verticalAlign=middle;resizable=0;points=[];" vertex="1" connectable="0" parent="lTy2XvYd9E1UGDLb3Sqx-32">
          <mxGeometry x="0.165" y="-3" relative="1" as="geometry">
            <mxPoint x="1" as="offset" />
          </mxGeometry>
        </mxCell>
        <mxCell id="lTy2XvYd9E1UGDLb3Sqx-17" value="if i&amp;lt;n&lt;div&gt;int i=0&lt;/div&gt;" style="rhombus;whiteSpace=wrap;html=1;" vertex="1" parent="1">
          <mxGeometry x="310" y="620" width="80" height="80" as="geometry" />
        </mxCell>
        <mxCell id="lTy2XvYd9E1UGDLb3Sqx-25" style="edgeStyle=orthogonalEdgeStyle;rounded=0;orthogonalLoop=1;jettySize=auto;html=1;entryX=1;entryY=0.5;entryDx=0;entryDy=0;" edge="1" parent="1" source="lTy2XvYd9E1UGDLb3Sqx-26" target="lTy2XvYd9E1UGDLb3Sqx-31">
          <mxGeometry relative="1" as="geometry">
            <mxPoint x="190" y="720" as="targetPoint" />
            <Array as="points">
              <mxPoint x="160" y="840" />
              <mxPoint x="160" y="690" />
            </Array>
          </mxGeometry>
        </mxCell>
        <mxCell id="lTy2XvYd9E1UGDLb3Sqx-26" value="min = min &amp;lt; arr[i] ? min : arr[i]&lt;br&gt;&lt;div&gt;i++&lt;/div&gt;" style="rounded=0;whiteSpace=wrap;html=1;" vertex="1" parent="1">
          <mxGeometry x="-9" y="799" width="120" height="60" as="geometry" />
        </mxCell>
        <mxCell id="lTy2XvYd9E1UGDLb3Sqx-29" value="" style="edgeStyle=orthogonalEdgeStyle;rounded=0;orthogonalLoop=1;jettySize=auto;html=1;entryX=0.5;entryY=0;entryDx=0;entryDy=0;" edge="1" parent="1" source="lTy2XvYd9E1UGDLb3Sqx-31" target="lTy2XvYd9E1UGDLb3Sqx-26">
          <mxGeometry relative="1" as="geometry">
            <mxPoint x="50" y="779.9999999999998" as="targetPoint" />
          </mxGeometry>
        </mxCell>
        <mxCell id="lTy2XvYd9E1UGDLb3Sqx-30" value="true" style="edgeLabel;html=1;align=center;verticalAlign=middle;resizable=0;points=[];" vertex="1" connectable="0" parent="lTy2XvYd9E1UGDLb3Sqx-29">
          <mxGeometry x="-0.2" y="1" relative="1" as="geometry">
            <mxPoint as="offset" />
          </mxGeometry>
        </mxCell>
        <mxCell id="lTy2XvYd9E1UGDLb3Sqx-34" style="edgeStyle=orthogonalEdgeStyle;rounded=0;orthogonalLoop=1;jettySize=auto;html=1;" edge="1" parent="1" source="lTy2XvYd9E1UGDLb3Sqx-31" target="lTy2XvYd9E1UGDLb3Sqx-35">
          <mxGeometry relative="1" as="geometry">
            <mxPoint x="-140" y="689.9999999999998" as="targetPoint" />
          </mxGeometry>
        </mxCell>
        <mxCell id="lTy2XvYd9E1UGDLb3Sqx-31" value="if i&amp;lt;n&lt;div&gt;int i=1&lt;/div&gt;&lt;div&gt;min=arr[0]&lt;/div&gt;" style="rhombus;whiteSpace=wrap;html=1;" vertex="1" parent="1">
          <mxGeometry x="10" y="650" width="80" height="80" as="geometry" />
        </mxCell>
        <mxCell id="lTy2XvYd9E1UGDLb3Sqx-37" value="" style="edgeStyle=orthogonalEdgeStyle;rounded=0;orthogonalLoop=1;jettySize=auto;html=1;" edge="1" parent="1" source="lTy2XvYd9E1UGDLb3Sqx-35" target="lTy2XvYd9E1UGDLb3Sqx-36">
          <mxGeometry relative="1" as="geometry" />
        </mxCell>
        <mxCell id="lTy2XvYd9E1UGDLb3Sqx-35" value="in ra min" style="shape=parallelogram;perimeter=parallelogramPerimeter;whiteSpace=wrap;html=1;fixedSize=1;" vertex="1" parent="1">
          <mxGeometry x="-270" y="660" width="120" height="60" as="geometry" />
        </mxCell>
        <mxCell id="lTy2XvYd9E1UGDLb3Sqx-36" value="" style="ellipse;whiteSpace=wrap;html=1;" vertex="1" parent="1">
          <mxGeometry x="-270" y="810" width="120" height="80" as="geometry" />
        </mxCell>
      </root>
    </mxGraphModel>
  </diagram>
</mxfile>
